<svg width="1443" height="140" viewBox="0 0 1443 140" fill="none" xmlns="http://www.w3.org/2000/svg">
<g clip-path="url(#clip0_89_10887)">
<rect width="1443" height="140" fill="#A0CD64"/>
<path d="M1024.87 41.7337C1024.52 41.3721 1023.87 41.326 1023.43 41.5414C1021.5 42.5183 1022.86 44.7106 1024.11 45.8106C1024.34 46.0106 1024.73 46.026 1024.96 45.8952C1025.22 45.9106 1025.48 45.8414 1025.66 45.6567C1026.64 44.6721 1025.82 42.6952 1024.87 41.7337Z" fill="#FFBA1A"/>
<path d="M1030.53 44.7644C1030.47 44.4183 1030.03 44.2183 1029.61 44.2183C1028.29 44.2336 1027.16 44.6106 1026.29 45.326C1026.05 45.526 1026.19 45.8183 1026.44 45.9721C1026.4 46.2798 1026.7 46.6106 1027.16 46.7029C1027.94 46.8567 1028.8 46.5336 1029.43 46.2644C1030.12 45.9721 1030.63 45.3952 1030.53 44.7644Z" fill="#FFBA1A"/>
<path d="M1023.95 47.5644C1023.59 46.9259 1022.77 46.4875 1021.9 46.3644C1021.39 46.2951 1020.84 46.5721 1020.81 46.9721C1020.77 47.5721 1020.87 48.2182 1021.34 48.749C1021.6 49.0413 1022.04 49.3336 1022.51 49.4721C1022.84 49.749 1023.47 49.7721 1023.81 49.4798C1024.39 48.9721 1024.29 48.1798 1023.94 47.5567L1023.95 47.5644Z" fill="#FFBA1A"/>
<path d="M1028.85 47.6104C1027.37 47.5027 1025.11 48.1489 1025.3 49.4874C1025.32 49.6566 1025.43 49.7797 1025.58 49.8643C1025.57 50.2566 1025.89 50.6797 1026.5 50.772C1027.3 50.8797 1028.12 50.5258 1028.67 50.1412C1029.28 49.7027 1029.67 49.1489 1029.75 48.4951C1029.8 48.1104 1029.41 47.6566 1028.85 47.6181V47.6104Z" fill="#FFBA1A"/>
<path d="M1022.6 50.7412C1022.24 50.5027 1021.72 50.3181 1021.26 50.3796C1021.21 50.3796 1021.17 50.4027 1021.12 50.4181C1020.89 50.4027 1020.65 50.4412 1020.46 50.5719C1019.51 51.1796 1019.6 52.295 1020.28 53.095C1020.68 53.5642 1021.17 53.895 1021.9 54.0027C1022.7 54.1181 1023.31 53.6489 1023.57 53.1565C1024 52.3565 1023.46 51.3258 1022.6 50.7489V50.7412Z" fill="#FFBA1A"/>
<path d="M1028.84 53.0643C1028.86 52.7258 1028.46 52.3489 1028.02 52.272C1027.8 52.2335 1027.6 52.2104 1027.4 52.2258C1026.5 52.1181 1025.68 52.3104 1025.01 52.7566C1024.46 53.1181 1024.13 53.5796 1023.75 54.0258C1023.74 54.0412 1023.72 54.0566 1023.71 54.0796C1023.68 54.1104 1023.66 54.1412 1023.63 54.1643C1023.54 54.2566 1023.54 54.3643 1023.58 54.4566C1023.58 54.7566 1023.75 55.0643 1024.15 55.2258C1025.32 55.695 1026.49 55.2489 1027.39 54.7258C1027.72 54.5335 1028.07 54.3258 1028.34 54.0796C1028.69 53.7566 1028.82 53.5027 1028.84 53.072V53.0643Z" fill="#FFBA1A"/>
<path d="M1022.44 56.3951C1022.05 55.4181 1020.84 54.8797 1019.56 55.0643C1019.04 55.1412 1018.55 55.3951 1018.52 55.8412C1018.48 56.5104 1018.78 57.2258 1019.32 57.7874C1019.58 58.0566 1019.88 58.2951 1020.19 58.5258C1020.31 58.6104 1020.45 58.6797 1020.6 58.7335C1021.04 59.0797 1021.74 59.1104 1022.29 58.8797C1023.48 58.3797 1022.75 57.1797 1022.43 56.3951H1022.44Z" fill="#FFBA1A"/>
<path d="M1027.12 57.3027C1026.9 56.9488 1026.27 56.6719 1025.79 56.8565C1025.19 57.0873 1024.62 57.2565 1024.13 57.6181C1023.7 57.9411 1023.43 58.3027 1023.42 58.7565C1023.19 58.9796 1023.13 59.3027 1023.29 59.5796C1023.98 60.7335 1025.7 60.1796 1026.44 59.5258C1027.05 58.9796 1027.57 58.0411 1027.11 57.3104L1027.12 57.3027Z" fill="#FFBA1A"/>
<path d="M1022.27 62.5335C1022.21 62.5104 1022.15 62.5027 1022.09 62.4873C1021.87 62.1873 1021.63 61.9027 1021.36 61.6335C1020.89 61.1719 1020.31 60.7796 1019.83 60.3335C1019.11 59.6565 1017.95 60.0412 1017.96 60.8181C1017.96 61.595 1018.6 62.5335 1019.22 63.1565C1019.88 63.8258 1021.2 64.3796 1022.12 63.895C1022.39 63.8642 1022.6 63.6488 1022.62 63.4181C1022.78 63.1027 1022.75 62.7181 1022.27 62.5412V62.5335Z" fill="#FFBA1A"/>
<path d="M1028.42 61.7874C1028.39 61.4721 1027.98 61.1413 1027.57 61.0951C1026.5 60.9798 1025.41 61.3336 1024.55 61.7336C1024.12 61.9336 1023.61 62.2567 1023.52 62.6644C1023.48 62.8567 1023.5 63.0644 1023.61 63.249C1023.69 63.3721 1023.79 63.4874 1023.94 63.5644C1024.06 63.8182 1024.35 64.0336 1024.77 64.1259C1025.63 64.3182 1026.59 63.9567 1027.22 63.5951C1027.99 63.1567 1028.49 62.5413 1028.42 61.7798V61.7874Z" fill="#FFBA1A"/>
<path d="M1022.46 66.5181C1022.5 66.295 1022.4 66.0566 1022.12 65.9027C1021.85 65.7489 1021.57 65.6797 1021.29 65.6412C1021.15 65.5104 1021.02 65.3797 1020.91 65.2874C1020.39 64.8489 1019.77 64.4489 1019.04 64.2489C1018.49 64.1027 1017.9 64.2104 1017.67 64.6258C1017.19 65.5181 1017.75 66.472 1018.91 66.9489C1019.83 67.3258 1021.53 67.5874 1022.23 66.9104C1022.39 66.8181 1022.48 66.6643 1022.46 66.5181Z" fill="#FFBA1A"/>
<path d="M1027.74 65.7259C1027.66 65.3259 1027.24 65.1259 1026.81 65.1105C1026.81 65.1105 1026.81 65.1105 1026.82 65.1105C1026.79 65.1105 1026.77 65.1105 1026.74 65.1105C1026.71 65.1105 1026.69 65.1105 1026.66 65.1105C1026.01 65.0797 1025.44 65.2644 1024.93 65.549C1024.81 65.6105 1024.7 65.6874 1024.6 65.7644C1024.39 65.7336 1024.16 65.7644 1024.02 65.8567C1023.99 65.8797 1023.96 65.9028 1023.92 65.9182C1023.69 65.9874 1023.51 66.0874 1023.34 66.2567C1022.78 66.8336 1023.24 67.7951 1024.28 67.9028C1025.3 68.0028 1026.21 67.849 1026.91 67.3105C1027.42 66.9182 1027.85 66.3182 1027.73 65.7259H1027.74Z" fill="#FFBA1A"/>
<path d="M1028.11 40.2644C1024.48 45.0414 1024.03 50.8414 1022.63 56.2337C1020.89 62.9106 1020.74 69.9567 1020.53 76.8183C1020.32 83.7952 1021.03 90.7644 1021.2 97.7567C1021.29 101.364 1021.07 104.98 1020.74 108.557C1020.57 110.411 1020.08 112.395 1019.88 114.364C1020.59 114.272 1021.3 114.203 1022.02 114.141C1022.21 112.626 1022.25 111.08 1022.4 109.672C1022.74 106.403 1022.9 103.111 1022.93 99.8106C1023 92.826 1021.98 85.8106 1022.11 78.826C1022.24 71.9183 1022.52 65.026 1023.74 58.2337C1024.8 52.326 1025.73 45.9414 1028.8 40.5183C1028.99 40.1875 1028.34 39.9875 1028.12 40.2798L1028.11 40.2644Z" fill="#C28400"/>
<path d="M1030.95 39.3643C1030.87 38.8105 1030.11 38.4259 1029.43 38.4643C1027.08 38.6028 1025.61 40.7259 1026.01 42.4105C1026.09 42.7643 1026.41 42.9951 1026.79 43.0874C1026.89 43.1874 1027.03 43.272 1027.21 43.3259C1028.52 43.7182 1029.56 42.8797 1030.13 42.1259C1030.77 41.2951 1031.1 40.3566 1030.96 39.3643H1030.95Z" fill="#FFBA1A"/>
<path d="M1043.97 58.7939C1044.42 58.5247 1045.07 58.617 1045.44 58.9324C1047.07 60.2862 1045.12 62.0785 1043.59 62.8554C1043.31 62.9939 1042.92 62.9247 1042.73 62.7478C1042.47 62.7016 1042.24 62.5862 1042.11 62.3708C1041.42 61.217 1042.77 59.5093 1043.97 58.8016V58.7939Z" fill="#FFBA1A"/>
<path d="M1037.55 60.4477C1037.7 60.1247 1038.2 60.0323 1038.61 60.1323C1039.91 60.4323 1040.92 61.04 1041.58 61.917C1041.76 62.1554 1041.55 62.4093 1041.25 62.5016C1041.21 62.8016 1040.82 63.0554 1040.34 63.04C1039.53 63.017 1038.77 62.517 1038.22 62.1247C1037.63 61.6939 1037.28 61.0323 1037.55 60.4554V60.4477Z" fill="#FFBA1A"/>
<path d="M1043.26 64.5555C1043.8 64.0248 1044.72 63.7863 1045.61 63.8632C1046.14 63.9094 1046.6 64.2863 1046.51 64.6786C1046.39 65.2632 1046.11 65.8555 1045.49 66.2555C1045.15 66.4786 1044.63 66.6632 1044.13 66.6863C1043.73 66.8786 1043.1 66.7632 1042.85 66.4094C1042.42 65.8017 1042.73 65.0632 1043.25 64.5478L1043.26 64.5555Z" fill="#FFBA1A"/>
<path d="M1038.41 63.5325C1039.9 63.7556 1041.94 64.8633 1041.39 66.0941C1041.32 66.2556 1041.18 66.3479 1041.01 66.3941C1040.91 66.771 1040.48 67.1095 1039.85 67.0556C1039.03 66.9864 1038.32 66.471 1037.89 65.9864C1037.41 65.4402 1037.18 64.8171 1037.29 64.1787C1037.35 63.8018 1037.86 63.4556 1038.42 63.5325H1038.41Z" fill="#FFBA1A"/>
<path d="M1042.08 69.9633C1042.2 70.4864 1042.67 71.071 1043.49 71.1402C1044.24 71.1941 1044.82 70.9864 1045.34 70.6325C1046.23 70.0171 1046.63 68.9787 1045.86 68.1864C1045.7 68.0248 1045.48 67.9325 1045.25 67.8941C1045.21 67.871 1045.17 67.8402 1045.12 67.8248C1044.68 67.671 1044.11 67.7248 1043.7 67.8787C1042.69 68.2402 1041.88 69.1095 1042.08 69.9633Z" fill="#FFBA1A"/>
<path d="M1036.91 68.7323C1036.99 68.4093 1037.48 68.14 1037.94 68.1554C1038.17 68.1631 1038.37 68.1862 1038.57 68.2477C1039.48 68.3477 1040.24 68.7016 1040.77 69.2708C1041.21 69.7323 1041.4 70.2477 1041.66 70.7554C1041.66 70.7708 1041.68 70.7939 1041.69 70.8093C1041.71 70.8477 1041.72 70.8785 1041.74 70.9093C1041.8 71.0246 1041.77 71.117 1041.7 71.2016C1041.62 71.4862 1041.36 71.74 1040.93 71.8093C1039.64 72.0016 1038.62 71.3246 1037.88 70.6246C1037.61 70.3708 1037.32 70.0939 1037.13 69.8016C1036.88 69.417 1036.82 69.1477 1036.91 68.7246V68.7323Z" fill="#FFBA1A"/>
<path d="M1041.74 75.717C1042.22 76.0555 1042.91 76.1785 1043.45 75.9478C1043.61 75.9324 1043.77 75.8939 1043.91 75.8401C1044.28 75.6862 1044.64 75.5247 1044.97 75.3247C1045.66 74.9016 1046.15 74.2862 1046.3 73.6401C1046.39 73.217 1045.99 72.8631 1045.49 72.6785C1044.28 72.2247 1042.94 72.4708 1042.29 73.3247C1041.76 74.0016 1040.71 74.9939 1041.74 75.7247V75.717Z" fill="#FFBA1A"/>
<path d="M1037.43 73.1555C1037.74 72.8709 1038.44 72.7401 1038.86 73.0171C1039.38 73.3709 1039.91 73.6555 1040.28 74.1017C1040.61 74.5017 1040.77 74.9094 1040.66 75.3401C1040.83 75.6017 1040.79 75.9247 1040.56 76.1478C1039.56 77.094 1038.02 76.194 1037.47 75.4094C1037.02 74.7555 1036.76 73.7478 1037.42 73.1478L1037.43 73.1555Z" fill="#FFBA1A"/>
<path d="M1040.76 79.2016C1040.83 79.1939 1040.89 79.2016 1040.95 79.2016C1041.25 78.9631 1041.56 78.74 1041.91 78.5477C1042.5 78.2093 1043.18 77.9631 1043.78 77.64C1044.68 77.1554 1045.71 77.7708 1045.49 78.5093C1045.26 79.2477 1044.38 80.0016 1043.6 80.4708C1042.77 80.9631 1041.31 81.2016 1040.54 80.54C1040.28 80.4477 1040.13 80.2016 1040.17 79.9708C1040.1 79.64 1040.24 79.2708 1040.76 79.2093V79.2016Z" fill="#FFBA1A"/>
<path d="M1034.91 77.1477C1035.03 76.8554 1035.52 76.6246 1035.94 76.6785C1037.02 76.8016 1038 77.3785 1038.74 77.9477C1039.11 78.2323 1039.53 78.6554 1039.5 79.0631C1039.49 79.2554 1039.41 79.4477 1039.24 79.6016C1039.13 79.7016 1039 79.7862 1038.83 79.8323C1038.64 80.0477 1038.3 80.1862 1037.85 80.1862C1036.95 80.1862 1036.11 79.6246 1035.58 79.14C1034.94 78.5554 1034.62 77.8631 1034.9 77.1477H1034.91Z" fill="#FFBA1A"/>
<path d="M1039.46 82.9633C1039.49 82.7402 1039.65 82.5402 1039.97 82.4479C1040.28 82.3633 1040.57 82.3556 1040.86 82.3787C1041.03 82.2787 1041.2 82.1864 1041.33 82.1248C1041.97 81.8171 1042.68 81.5787 1043.46 81.5479C1044.05 81.5248 1044.6 81.7633 1044.7 82.2095C1044.92 83.1633 1044.11 83.9556 1042.83 84.1556C1041.82 84.3171 1040.07 84.1941 1039.57 83.3941C1039.44 83.271 1039.39 83.1095 1039.45 82.971L1039.46 82.9633Z" fill="#FFBA1A"/>
<path d="M1034.86 82.7478C1035.4 83.4093 1036.25 83.7632 1037.29 83.8862C1038.34 84.0093 1039.06 83.1862 1038.67 82.517C1038.55 82.317 1038.39 82.1785 1038.19 82.0709C1038.16 82.0401 1038.14 82.017 1038.11 81.9862C1038 81.8632 1037.78 81.7862 1037.56 81.7709C1037.48 81.6785 1037.4 81.5785 1037.3 81.4939C1036.87 81.117 1036.37 80.8093 1035.72 80.7016C1035.7 80.7016 1035.67 80.6939 1035.65 80.6862C1035.62 80.6862 1035.6 80.6709 1035.57 80.6709C1035.57 80.6709 1035.57 80.6709 1035.58 80.6709C1035.14 80.5862 1034.68 80.6939 1034.49 81.0555C1034.21 81.5939 1034.47 82.2555 1034.86 82.7401V82.7478Z" fill="#FFBA1A"/>
<path d="M1027.57 124.14C1028.14 120.948 1028.9 117.771 1029.78 114.617C1031.64 107.94 1034.6 101.463 1036.41 94.771C1038.2 88.1556 1039.83 81.5171 1040.51 74.7633C1041.1 68.894 1041.95 62.6017 1040.44 56.7556C1040.35 56.4017 1041.04 56.3556 1041.18 56.6787C1043.43 62.0248 1042.26 67.6633 1042.15 73.1094C1042.01 79.8556 1040.21 86.6171 1038.51 93.2094C1036.79 99.9094 1034.15 106.409 1032.04 113.04C1030.95 116.463 1030.16 119.956 1029.5 123.448C1028.91 126.502 1029.13 130.14 1027.44 132.971C1027.3 133.202 1026.85 133.156 1026.78 132.909C1026 130.117 1027.07 126.917 1027.57 124.14Z" fill="#C28400"/>
<path d="M1038.64 55.2094C1038.87 54.7017 1039.73 54.494 1040.39 54.6863C1042.67 55.3324 1043.52 57.6786 1042.67 59.194C1042.49 59.517 1042.11 59.6632 1041.72 59.6709C1041.59 59.7401 1041.43 59.794 1041.24 59.8094C1039.84 59.9017 1039.05 58.8709 1038.69 58.0247C1038.29 57.094 1038.23 56.1247 1038.64 55.2094Z" fill="#FFBA1A"/>
<path d="M1350.85 45.3981C1351.35 45.0999 1352.07 45.2021 1352.48 45.5515C1354.28 47.0513 1352.12 49.0368 1350.43 49.8974C1350.12 50.0508 1349.69 49.9741 1349.48 49.7781C1349.19 49.727 1348.93 49.5992 1348.79 49.3606C1348.02 48.0824 1349.52 46.1906 1350.85 45.4067V45.3981Z" fill="#FFBA1A"/>
<path d="M1343.74 47.2302C1343.9 46.8723 1344.46 46.7701 1344.91 46.8809C1346.35 47.2132 1347.47 47.8864 1348.2 48.8578C1348.4 49.122 1348.17 49.4032 1347.84 49.5055C1347.79 49.8378 1347.36 50.119 1346.83 50.102C1345.93 50.0764 1345.09 49.5225 1344.48 49.0879C1343.82 48.6107 1343.44 47.8779 1343.74 47.2388V47.2302Z" fill="#FFBA1A"/>
<path d="M1350.06 51.7806C1350.66 51.1926 1351.68 50.9285 1352.67 51.0137C1353.25 51.0648 1353.76 51.4824 1353.66 51.9169C1353.53 52.5646 1353.22 53.2207 1352.53 53.6638C1352.16 53.911 1351.58 54.1155 1351.03 54.141C1350.58 54.3541 1349.88 54.2263 1349.61 53.8343C1349.13 53.1611 1349.47 52.343 1350.05 51.7721L1350.06 51.7806Z" fill="#FFBA1A"/>
<path d="M1344.69 50.6472C1346.34 50.8943 1348.6 52.1214 1347.99 53.4848C1347.91 53.6638 1347.76 53.7661 1347.57 53.8172C1347.46 54.2347 1346.98 54.6097 1346.28 54.55C1345.38 54.4733 1344.59 53.9024 1344.11 53.3656C1343.58 52.7605 1343.33 52.0703 1343.45 51.363C1343.51 50.9455 1344.08 50.562 1344.7 50.6472H1344.69Z" fill="#FFBA1A"/>
<path d="M1348.76 57.7711C1348.89 58.3505 1349.41 58.9982 1350.32 59.0749C1351.15 59.1345 1351.79 58.9044 1352.37 58.5124C1353.35 57.8307 1353.8 56.6803 1352.94 55.8026C1352.77 55.6237 1352.52 55.5214 1352.27 55.4788C1352.22 55.4533 1352.18 55.4192 1352.12 55.4021C1351.64 55.2317 1351 55.2913 1350.55 55.4618C1349.43 55.8623 1348.53 56.8252 1348.76 57.7711Z" fill="#FFBA1A"/>
<path d="M1343.03 56.4079C1343.12 56.05 1343.66 55.7517 1344.17 55.7688C1344.42 55.7773 1344.64 55.8028 1344.87 55.871C1345.87 55.9818 1346.72 56.3738 1347.3 57.0044C1347.79 57.5156 1348 58.0866 1348.29 58.649C1348.29 58.666 1348.31 58.6916 1348.32 58.7086C1348.34 58.7513 1348.36 58.7853 1348.38 58.8194C1348.44 58.9472 1348.41 59.0495 1348.33 59.1432C1348.24 59.4585 1347.96 59.7397 1347.48 59.8164C1346.05 60.0295 1344.92 59.2796 1344.1 58.5041C1343.8 58.2229 1343.48 57.9162 1343.27 57.5923C1342.99 57.1663 1342.93 56.868 1343.03 56.3993V56.4079Z" fill="#FFBA1A"/>
<path d="M1348.38 64.1453C1348.91 64.5202 1349.67 64.6566 1350.27 64.4009C1350.45 64.3839 1350.63 64.3413 1350.78 64.2816C1351.19 64.1112 1351.59 63.9322 1351.96 63.7107C1352.72 63.242 1353.26 62.5603 1353.43 61.8445C1353.53 61.3758 1353.09 60.9838 1352.53 60.7793C1351.19 60.2766 1349.71 60.5492 1348.99 61.4951C1348.4 62.245 1347.24 63.3443 1348.38 64.1538V64.1453Z" fill="#FFBA1A"/>
<path d="M1343.6 61.3075C1343.95 60.9923 1344.72 60.8474 1345.19 61.1542C1345.76 61.5461 1346.35 61.8614 1346.76 62.3557C1347.13 62.7988 1347.3 63.2504 1347.18 63.7276C1347.37 64.0173 1347.33 64.3752 1347.07 64.6224C1345.96 65.6705 1344.26 64.6735 1343.65 63.8043C1343.15 63.08 1342.86 61.9637 1343.59 61.299L1343.6 61.3075Z" fill="#FFBA1A"/>
<path d="M1347.29 68.0054C1347.37 67.9969 1347.44 68.0054 1347.5 68.0054C1347.84 67.7412 1348.18 67.4941 1348.57 67.2811C1349.22 66.9061 1349.97 66.6335 1350.64 66.2756C1351.63 65.7387 1352.78 66.4204 1352.53 67.2385C1352.28 68.0565 1351.3 68.8916 1350.44 69.4114C1349.52 69.9568 1347.9 70.221 1347.05 69.4881C1346.76 69.3859 1346.59 69.1132 1346.64 68.8575C1346.56 68.4911 1346.72 68.0821 1347.29 68.0139V68.0054Z" fill="#FFBA1A"/>
<path d="M1340.81 65.7302C1340.94 65.4063 1341.49 65.1507 1341.95 65.2103C1343.15 65.3467 1344.23 65.9858 1345.05 66.6164C1345.46 66.9317 1345.93 67.4003 1345.9 67.852C1345.89 68.065 1345.8 68.2781 1345.61 68.4485C1345.49 68.5593 1345.34 68.653 1345.15 68.7041C1344.94 68.9427 1344.57 69.0961 1344.07 69.0961C1343.07 69.0961 1342.14 68.474 1341.55 67.9372C1340.84 67.2896 1340.49 66.5226 1340.8 65.7302H1340.81Z" fill="#FFBA1A"/>
<path d="M1345.85 72.1724C1345.89 71.9253 1346.06 71.7037 1346.42 71.6015C1346.76 71.5077 1347.08 71.4992 1347.4 71.5248C1347.59 71.414 1347.78 71.3118 1347.92 71.2436C1348.63 70.9027 1349.42 70.6386 1350.28 70.6045C1350.94 70.5789 1351.55 70.8431 1351.66 71.3373C1351.9 72.394 1351 73.2717 1349.59 73.4932C1348.47 73.6722 1346.53 73.5358 1345.97 72.6496C1345.83 72.5133 1345.77 72.3343 1345.84 72.1809L1345.85 72.1724Z" fill="#FFBA1A"/>
<path d="M1340.76 71.9338C1341.35 72.6666 1342.3 73.0586 1343.45 73.195C1344.61 73.3313 1345.41 72.4195 1344.98 71.6782C1344.84 71.4566 1344.67 71.3032 1344.44 71.1839C1344.41 71.1498 1344.39 71.1243 1344.36 71.0902C1344.23 70.9538 1343.99 70.8686 1343.75 70.8516C1343.66 70.7493 1343.57 70.6386 1343.46 70.5448C1342.98 70.1273 1342.43 69.7864 1341.71 69.6671C1341.69 69.6671 1341.65 69.6586 1341.63 69.6501C1341.6 69.6501 1341.58 69.633 1341.54 69.633C1341.54 69.633 1341.54 69.633 1341.55 69.633C1341.07 69.5393 1340.56 69.6586 1340.35 70.0591C1340.04 70.6556 1340.32 71.3884 1340.76 71.9253V71.9338Z" fill="#FFBA1A"/>
<path d="M1332.68 117.788C1333.31 114.251 1334.15 110.732 1335.13 107.238C1337.19 99.8415 1340.47 92.6665 1342.47 85.2529C1344.46 77.9245 1346.26 70.5705 1347.02 63.0887C1347.67 56.5869 1348.61 49.6164 1346.94 43.1401C1346.84 42.7481 1347.6 42.697 1347.76 43.0549C1350.25 48.9773 1348.95 55.2234 1348.83 61.2566C1348.68 68.7299 1346.68 76.2202 1344.8 83.523C1342.89 90.9452 1339.97 98.1458 1337.63 105.491C1336.43 109.283 1335.55 113.152 1334.82 117.021C1334.17 120.404 1334.41 124.434 1332.54 127.57C1332.38 127.826 1331.88 127.775 1331.81 127.502C1330.94 124.409 1332.13 120.864 1332.68 117.788Z" fill="#C28400"/>
<path d="M1344.94 41.4272C1345.2 40.8648 1346.15 40.6347 1346.88 40.8477C1349.41 41.5635 1350.35 44.1625 1349.41 45.8413C1349.21 46.1992 1348.79 46.3611 1348.36 46.3696C1348.21 46.4463 1348.03 46.5059 1347.82 46.523C1346.27 46.6252 1345.4 45.4834 1345 44.546C1344.56 43.5149 1344.49 42.4412 1344.94 41.4272Z" fill="#FFBA1A"/>
<path d="M90.0008 128.523C90.5608 128.439 91.1408 128.346 91.7208 128.254C91.5808 125.939 90.9108 123.639 90.3808 121.439C89.6108 118.254 88.6508 115.1 87.7408 111.946C86.0008 105.9 84.3408 99.8387 82.8908 93.731C81.4208 87.5772 80.8508 81.2618 80.7408 74.9002C80.6808 71.8925 81.1208 68.8079 81.6208 65.7618C82.0308 63.2925 81.8208 60.8156 83.1608 58.3541C83.3308 58.0464 82.6408 57.9772 82.4608 58.2772C81.1008 60.5464 81.1408 62.7695 80.6308 65.0618C79.9608 68.0925 79.1808 71.2156 79.1508 74.2079C79.0808 80.4233 79.3208 86.631 80.4308 92.6925C81.6108 99.131 83.2008 105.446 85.0908 111.731C86.0408 114.877 86.9308 118.039 87.8708 121.193C88.5908 123.593 89.0808 126.139 90.0008 128.516V128.523Z" fill="#C28400"/>
<path d="M74.6313 63.9154C74.5813 63.5231 74.9613 63.0539 75.6813 63.0231C77.2713 62.9616 81.0513 64.1077 80.3813 65.4616C80.6713 65.6077 80.7813 65.8154 80.4213 66.1385C80.2213 66.3154 79.9013 66.5154 79.5513 66.5077C77.2613 66.4616 74.8213 65.477 74.6313 63.9154Z" fill="#FFBA1A"/>
<path d="M81.8514 58.6694C81.6814 58.5155 81.7414 58.3463 81.9014 58.2078C81.2714 57.4463 81.4614 56.1386 81.7614 55.254C82.1414 54.154 83.3514 53.0617 85.2114 53.0771C85.6114 53.0771 86.1114 53.1463 86.2714 53.4078C86.9514 54.554 86.3314 56.1001 85.5614 57.3232C85.0014 58.2155 83.0714 59.8155 81.8614 58.6694H81.8514Z" fill="#FFBA1A"/>
<path d="M83.6507 62.5156C82.8407 62.6772 81.9507 62.8695 81.2407 62.6156C80.9907 62.5233 80.8807 62.3079 81.0707 62.1156C81.1007 62.0849 81.1307 62.0695 81.1607 62.0464C80.9507 62.0618 80.7507 62.0079 80.6507 61.8464C79.5807 61.9772 78.7007 61.2079 78.1607 60.7618C77.5307 60.2464 76.9807 59.6156 77.2007 58.8618C77.3107 58.4618 77.7807 58.1772 78.4007 58.2156C81.0007 58.3772 81.4707 59.9003 81.6707 61.3541C82.5707 60.9233 83.5607 60.5541 84.5307 60.2233C85.2507 59.9772 86.8207 59.3695 87.4507 59.8233C88.2007 60.3618 87.1107 61.3541 86.2707 61.7541C85.4607 62.1387 84.5507 62.3464 83.6407 62.531L83.6507 62.5156Z" fill="#FFBA1A"/>
<path d="M81.7509 66.9079C81.6209 66.8002 81.6009 66.6771 81.6609 66.554C81.5109 66.5002 81.4109 66.4002 81.4409 66.2694C81.5409 65.8617 81.7009 65.554 82.1209 65.2002C82.6409 64.7617 83.2209 64.4694 83.9709 64.2232C85.0309 63.8848 86.4309 63.654 87.0709 64.3232C87.6909 64.9694 86.9209 65.7925 85.9809 66.2771C85.3509 66.6002 84.5809 66.8848 83.8609 67.0848C83.1309 67.2925 82.1909 67.2617 81.7509 66.9079Z" fill="#FFBA1A"/>
<path d="M78.6013 71.077C76.4513 70.9386 73.0913 69.477 74.5113 67.7616C74.6913 67.5463 75.0813 67.3924 75.4313 67.3693C77.6213 67.2386 79.9913 68.554 79.8913 70.0386C80.1813 70.477 79.6013 71.1463 78.6013 71.077Z" fill="#FFBA1A"/>
<path d="M82.7409 72.1309C82.4609 72.1694 82.2009 72.1771 81.9209 72.1771C81.7509 72.1771 81.5909 72.1463 81.4409 72.1232C81.3309 72.2002 81.1709 72.2386 81.0309 72.2002C80.7909 72.1309 80.9009 72.2002 80.6109 72.1079C80.4109 72.0463 80.2609 71.8771 80.1809 71.7463C79.8609 71.2694 80.1809 70.6848 80.5609 70.1925C81.4409 69.1002 83.0709 68.1771 84.9209 68.1232C86.6709 68.0694 87.6709 69.0386 86.8809 70.1463C86.4009 70.8155 85.4109 71.3848 84.4309 71.7386C83.8809 71.9386 83.3509 72.0386 82.7609 72.1232L82.7409 72.1309Z" fill="#FFBA1A"/>
<path d="M78.401 76.4385C78.261 76.4847 78.101 76.5231 77.931 76.5539C76.731 76.7231 75.501 76.2923 74.591 75.9462C73.591 75.5616 72.571 75.0154 72.501 74.177C72.471 73.7847 73.151 73.3693 73.731 73.3539C75.511 73.2924 77.021 73.5385 78.401 74.1616C79.501 74.6616 80.531 75.5616 79.241 76.4923C78.981 76.677 78.531 76.6231 78.411 76.4539L78.401 76.4385Z" fill="#FFBA1A"/>
<path d="M80.901 76.9772C80.501 77.2618 79.741 77.2849 79.641 76.8849C79.631 76.8464 79.641 76.808 79.631 76.7695C79.541 76.6926 79.541 76.5772 79.631 76.4695C79.631 76.4695 79.631 76.4695 79.641 76.4618C79.901 74.9618 83.031 72.8541 85.171 73.5156C88.231 74.4618 83.731 76.8926 80.901 76.9772Z" fill="#FFBA1A"/>
<path d="M75.7112 81.4541C74.6412 81.1695 73.4412 80.631 73.3512 79.8002C73.2312 78.6926 75.5512 78.3464 76.7312 78.3695C77.6812 78.3926 78.5412 78.7387 79.1612 79.131C79.8812 79.5849 80.1712 80.1156 80.0812 80.8156C80.0412 81.131 79.5812 81.2926 79.2212 81.2464C78.3912 82.031 76.6612 81.7079 75.7112 81.4541Z" fill="#FFBA1A"/>
<path d="M80.251 81.2617C80.211 81.1925 80.211 81.1156 80.251 81.0386C80.681 80.0463 81.451 78.8156 83.061 78.3233C84.461 77.8925 86.361 78.3386 86.321 79.354C86.291 80.2463 84.571 81.0002 83.521 81.4617C82.451 81.9309 80.791 82.5386 79.611 82.2386C79.401 82.1848 79.361 82.0002 79.481 81.8694C79.691 81.6386 79.961 81.4463 80.261 81.2694L80.251 81.2617Z" fill="#FFBA1A"/>
<path d="M79.2308 86.5926C77.6008 87.6464 73.2408 86.0849 73.3608 84.8387C73.3908 84.5387 73.7508 84.1926 74.2308 84.1002C75.6008 83.8387 76.7108 83.8156 77.9208 84.1464C79.0908 84.4618 79.9408 85.131 80.0708 85.9926C80.1208 86.3002 79.6308 86.5926 79.2308 86.5849V86.5926Z" fill="#FFBA1A"/>
<path d="M80.1314 86.0232C80.4114 85.5309 80.9114 85.0617 81.4514 84.6617C82.3514 83.9925 83.9614 83.3079 85.2514 83.4925C86.4014 83.654 86.6514 84.4694 86.1914 85.1771C85.6714 85.9771 84.7314 86.6079 83.6514 87.1309C82.9014 87.4925 82.1114 87.8079 81.2314 87.9156C80.7214 87.9848 80.1114 87.8617 79.9814 87.5617C79.8414 87.5002 79.7614 87.4002 79.7914 87.2386C79.8714 86.8386 79.9014 86.4232 80.1314 86.0232Z" fill="#FFBA1A"/>
<path d="M74.2514 91.0386C74.1914 90.577 74.5014 90.2539 75.1814 90.0232C76.6114 89.5539 78.4414 89.7001 79.7514 89.9462C80.6914 90.1232 81.8914 90.6078 81.7414 91.3309C82.2614 91.8462 81.6114 92.577 80.5714 92.7078C78.3314 92.9924 74.4714 92.7693 74.2514 91.0462V91.0386Z" fill="#FFBA1A"/>
<path d="M83.5605 89.4308C84.7605 88.7616 87.1905 88.3154 87.8205 89.3847C88.3405 90.2462 87.1305 91.0154 85.9805 91.5077C85.3905 91.7616 84.5005 92.077 83.8205 92.1231C83.6005 92.1385 83.3705 92.1462 83.1605 92.1231C82.9205 92.4616 82.2205 92.4847 81.9405 92.2385C81.0305 91.4077 82.3805 90.0847 83.5505 89.4308H83.5605Z" fill="#FFBA1A"/>
<path d="M1334 113.908C1334.56 113.823 1335.14 113.731 1335.72 113.639C1335.58 111.323 1334.91 109.023 1334.38 106.823C1333.61 103.639 1332.65 100.485 1331.74 97.3312C1330 91.285 1328.34 85.2235 1326.89 79.1158C1325.42 72.9619 1324.85 66.6465 1324.74 60.285C1324.68 57.2773 1325.12 54.1927 1325.62 51.1465C1326.03 48.6773 1325.82 46.2004 1327.16 43.7389C1327.33 43.4312 1326.64 43.3619 1326.46 43.6619C1325.1 45.9312 1325.14 48.1542 1324.63 50.4465C1323.96 53.4773 1323.18 56.6004 1323.15 59.5927C1323.08 65.8081 1323.32 72.0158 1324.43 78.0773C1325.61 84.5158 1327.2 90.8312 1329.09 97.1158C1330.04 100.262 1330.93 103.423 1331.87 106.577C1332.59 108.977 1333.08 111.523 1334 113.9V113.908Z" fill="#C28400"/>
<path d="M1318.63 49.3002C1318.58 48.9079 1318.96 48.4387 1319.68 48.4079C1321.27 48.3463 1325.05 49.4925 1324.38 50.8463C1324.67 50.9925 1324.78 51.2002 1324.42 51.5233C1324.22 51.7002 1323.9 51.9002 1323.55 51.8925C1321.26 51.8463 1318.82 50.8617 1318.63 49.3002Z" fill="#FFBA1A"/>
<path d="M1325.85 44.0541C1325.68 43.9003 1325.74 43.7311 1325.9 43.5926C1325.27 42.8311 1325.46 41.5234 1325.76 40.6388C1326.14 39.5388 1327.35 38.4464 1329.21 38.4618C1329.61 38.4618 1330.11 38.5311 1330.27 38.7926C1330.95 39.9388 1330.33 41.4849 1329.56 42.708C1329 43.6003 1327.07 45.2003 1325.86 44.0541H1325.85Z" fill="#FFBA1A"/>
<path d="M1327.65 47.9004C1326.84 48.0619 1325.95 48.2542 1325.24 48.0004C1324.99 47.9081 1324.88 47.6927 1325.07 47.5004C1325.1 47.4696 1325.13 47.4542 1325.16 47.4312C1324.95 47.4466 1324.75 47.3927 1324.65 47.2312C1323.58 47.3619 1322.7 46.5927 1322.16 46.1466C1321.53 45.6312 1320.98 45.0004 1321.2 44.2466C1321.31 43.8466 1321.78 43.5619 1322.4 43.6004C1325 43.7619 1325.47 45.285 1325.67 46.7389C1326.57 46.3081 1327.56 45.9389 1328.53 45.6081C1329.25 45.3619 1330.82 44.7542 1331.45 45.2081C1332.2 45.7466 1331.11 46.7389 1330.27 47.1389C1329.46 47.5235 1328.55 47.7312 1327.64 47.9158L1327.65 47.9004Z" fill="#FFBA1A"/>
<path d="M1325.75 52.2926C1325.62 52.1849 1325.6 52.0619 1325.66 51.9388C1325.51 51.8849 1325.41 51.7849 1325.44 51.6542C1325.54 51.2465 1325.7 50.9388 1326.12 50.5849C1326.64 50.1465 1327.22 49.8542 1327.97 49.608C1329.03 49.2696 1330.43 49.0388 1331.07 49.708C1331.69 50.3542 1330.92 51.1772 1329.98 51.6619C1329.35 51.9849 1328.58 52.2696 1327.86 52.4696C1327.13 52.6772 1326.19 52.6465 1325.75 52.2926Z" fill="#FFBA1A"/>
<path d="M1322.6 56.4618C1320.45 56.3233 1317.09 54.8618 1318.51 53.1464C1318.69 52.931 1319.08 52.7772 1319.43 52.7541C1321.62 52.6233 1323.99 53.9387 1323.89 55.4233C1324.18 55.8618 1323.6 56.531 1322.6 56.4618Z" fill="#FFBA1A"/>
<path d="M1326.74 57.5157C1326.46 57.5542 1326.2 57.5618 1325.92 57.5618C1325.75 57.5618 1325.59 57.5311 1325.44 57.508C1325.33 57.5849 1325.17 57.6234 1325.03 57.5849C1324.79 57.5157 1324.9 57.5849 1324.61 57.4926C1324.41 57.4311 1324.26 57.2618 1324.18 57.1311C1323.86 56.6542 1324.18 56.0695 1324.56 55.5772C1325.44 54.4849 1327.07 53.5618 1328.92 53.508C1330.67 53.4542 1331.67 54.4234 1330.88 55.5311C1330.4 56.2003 1329.41 56.7695 1328.43 57.1234C1327.88 57.3234 1327.35 57.4234 1326.76 57.508L1326.74 57.5157Z" fill="#FFBA1A"/>
<path d="M1322.4 61.8233C1322.26 61.8694 1322.1 61.9079 1321.93 61.9387C1320.73 62.1079 1319.5 61.6771 1318.59 61.331C1317.59 60.9463 1316.57 60.4002 1316.5 59.5617C1316.47 59.1694 1317.15 58.754 1317.73 58.7387C1319.51 58.6771 1321.02 58.9233 1322.4 59.5463C1323.5 60.0463 1324.53 60.9463 1323.24 61.8771C1322.98 62.0617 1322.53 62.0079 1322.41 61.8387L1322.4 61.8233Z" fill="#FFBA1A"/>
<path d="M1324.9 62.3619C1324.5 62.6466 1323.74 62.6696 1323.64 62.2696C1323.63 62.2312 1323.64 62.1927 1323.63 62.1543C1323.54 62.0773 1323.54 61.9619 1323.63 61.8543C1323.63 61.8543 1323.63 61.8543 1323.64 61.8466C1323.9 60.3466 1327.03 58.2389 1329.17 58.9004C1332.23 59.8466 1327.73 62.2773 1324.9 62.3619Z" fill="#FFBA1A"/>
<path d="M1319.71 66.8389C1318.64 66.5542 1317.44 66.0158 1317.35 65.185C1317.23 64.0773 1319.55 63.7312 1320.73 63.7542C1321.68 63.7773 1322.54 64.1235 1323.16 64.5158C1323.88 64.9696 1324.17 65.5004 1324.08 66.2004C1324.04 66.5158 1323.58 66.6773 1323.22 66.6312C1322.39 67.4158 1320.66 67.0927 1319.71 66.8389Z" fill="#FFBA1A"/>
<path d="M1324.25 66.6465C1324.21 66.5773 1324.21 66.5003 1324.25 66.4234C1324.68 65.4311 1325.45 64.2003 1327.06 63.708C1328.46 63.2773 1330.36 63.7234 1330.32 64.7388C1330.29 65.6311 1328.57 66.3849 1327.52 66.8465C1326.45 67.3157 1324.79 67.9234 1323.61 67.6234C1323.4 67.5696 1323.36 67.3849 1323.48 67.2542C1323.69 67.0234 1323.96 66.8311 1324.26 66.6542L1324.25 66.6465Z" fill="#FFBA1A"/>
<path d="M1323.23 71.9773C1321.6 73.0312 1317.24 71.4696 1317.36 70.2235C1317.39 69.9235 1317.75 69.5773 1318.23 69.485C1319.6 69.2235 1320.71 69.2004 1321.92 69.5312C1323.09 69.8465 1323.94 70.5158 1324.07 71.3773C1324.12 71.685 1323.63 71.9773 1323.23 71.9696V71.9773Z" fill="#FFBA1A"/>
<path d="M1324.13 71.408C1324.41 70.9157 1324.91 70.4465 1325.45 70.0465C1326.35 69.3772 1327.96 68.6926 1329.25 68.8772C1330.4 69.0388 1330.65 69.8542 1330.19 70.5619C1329.67 71.3619 1328.73 71.9926 1327.65 72.5157C1326.9 72.8772 1326.11 73.1926 1325.23 73.3003C1324.72 73.3696 1324.11 73.2465 1323.98 72.9465C1323.84 72.8849 1323.76 72.7849 1323.79 72.6234C1323.87 72.2234 1323.9 71.808 1324.13 71.408Z" fill="#FFBA1A"/>
<path d="M1318.25 76.4233C1318.19 75.9618 1318.5 75.6387 1319.18 75.4079C1320.61 74.9387 1322.44 75.0849 1323.75 75.331C1324.69 75.5079 1325.89 75.9926 1325.74 76.7156C1326.26 77.231 1325.61 77.9618 1324.57 78.0926C1322.33 78.3772 1318.47 78.1541 1318.25 76.431V76.4233Z" fill="#FFBA1A"/>
<path d="M1327.56 74.8156C1328.76 74.1463 1331.19 73.7002 1331.82 74.7694C1332.34 75.631 1331.13 76.4002 1329.98 76.8925C1329.39 77.1463 1328.5 77.4617 1327.82 77.5079C1327.6 77.5233 1327.37 77.531 1327.16 77.5079C1326.92 77.8463 1326.22 77.8694 1325.94 77.6233C1325.03 76.7925 1326.38 75.4694 1327.55 74.8156H1327.56Z" fill="#FFBA1A"/>
<path d="M50.9295 104.607C50.8195 100.991 50.6695 97.3758 50.5695 93.7527C50.3595 86.5297 49.8895 79.345 49.0295 72.1527C48.2195 65.3758 46.6095 58.6604 44.7295 52.0143C43.8295 48.8066 42.2495 45.6604 40.7795 42.5835C39.6695 40.2527 39.0595 37.8681 37.2195 35.7835C36.9795 35.5066 36.4095 35.7604 36.6395 36.045C38.5095 38.345 39.0495 41.0527 40.1295 43.5912C41.4595 46.7297 42.7295 49.922 43.5595 53.1604C45.3195 60.0143 46.6695 66.922 47.2095 73.8989C47.7395 80.8143 48.0795 87.7374 48.3495 94.6604C48.4895 98.2758 48.5795 101.899 48.8395 105.514C49.0795 108.799 49.1595 112.353 50.3595 115.53C50.4695 115.83 50.9795 115.737 51.0195 115.46C51.5595 111.914 51.0395 108.176 50.9395 104.607H50.9295Z" fill="#C28400"/>
<path d="M45.6291 39.822C45.5591 39.3912 45.0891 38.9836 44.4591 39.1374C43.0691 39.4836 40.1391 41.6759 41.1091 42.9528C40.8991 43.1836 40.8691 43.4297 41.2791 43.6836C41.5091 43.822 41.8391 43.9528 42.1391 43.8605C44.0991 43.222 45.9191 41.5374 45.6291 39.822Z" fill="#FFCA4D"/>
<path d="M37.8691 36.045C37.9691 35.8373 37.8691 35.6681 37.6991 35.5604C38.0191 34.5758 37.4791 33.222 36.9591 32.3604C36.3091 31.2835 34.9491 30.4143 33.3491 30.9143C32.9991 31.022 32.5891 31.222 32.5391 31.5373C32.2891 32.9373 33.2791 34.4373 34.2991 35.5527C35.0491 36.3681 37.1691 37.5912 37.8891 36.045H37.8691Z" fill="#FFCA4D"/>
<path d="M37.4291 40.6297C38.1791 40.5989 38.9991 40.5759 39.5291 40.1143C39.7191 39.9528 39.7491 39.6913 39.5291 39.5374C39.4991 39.5143 39.4591 39.5066 39.4291 39.4836C39.6091 39.4528 39.7791 39.3374 39.8091 39.1374C40.7691 38.9989 41.3091 37.9528 41.6391 37.3374C42.0291 36.622 42.3191 35.8066 41.9191 35.0528C41.7091 34.6528 41.2191 34.4682 40.6991 34.6682C38.4991 35.5066 38.5391 37.2605 38.7891 38.8682C37.8891 38.6374 36.9291 38.4989 35.9891 38.3913C35.2991 38.3066 33.7591 38.0605 33.3491 38.7066C32.8591 39.4682 34.0891 40.2528 34.9291 40.4682C35.7391 40.6759 36.5891 40.6605 37.4291 40.622V40.6297Z" fill="#FFCA4D"/>
<path d="M40.3592 44.8451C40.4392 44.6989 40.4192 44.5604 40.3292 44.4451C40.4492 44.3451 40.4992 44.2143 40.4392 44.0835C40.2292 43.6758 39.9992 43.3835 39.5392 43.1066C38.9692 42.7681 38.3792 42.5989 37.6592 42.5374C36.6392 42.4451 35.3692 42.5604 35.0092 43.4451C34.6592 44.2989 35.5692 44.9835 36.5192 45.2604C37.1592 45.4451 37.9092 45.5451 38.5892 45.5835C39.2792 45.6143 40.0892 45.3451 40.3592 44.8528V44.8451Z" fill="#FFCA4D"/>
<path d="M44.2988 48.5143C46.1188 47.8066 48.5788 45.3912 46.8588 43.9143C46.6388 43.7297 46.2588 43.6605 45.9488 43.7297C44.0188 44.1528 42.3588 46.1682 42.8788 47.7297C42.7588 48.2682 43.4488 48.8451 44.2988 48.5143Z" fill="#FFCA4D"/>
<path d="M41.0287 50.699C41.2787 50.6682 41.5087 50.6067 41.7487 50.5375C41.8987 50.499 42.0187 50.4221 42.1487 50.3528C42.2587 50.4067 42.4187 50.4144 42.5287 50.3298C42.7187 50.1913 42.6387 50.299 42.8687 50.1221C43.0287 49.999 43.0987 49.7913 43.1387 49.6221C43.2787 49.0298 42.8387 48.4836 42.3587 48.0605C41.2787 47.1144 39.5987 46.5451 37.9887 46.9605C36.4587 47.3528 35.8787 48.6451 36.8887 49.6298C37.4987 50.2298 38.5187 50.5836 39.4787 50.7067C40.0187 50.7759 40.4987 50.7528 41.0287 50.6913V50.699Z" fill="#FFCA4D"/>
<path d="M46.0392 54.2065C46.1792 54.2219 46.3192 54.2219 46.4792 54.2065C47.5692 54.0834 48.4992 53.3065 49.1892 52.6988C49.9392 52.0295 50.6592 51.1834 50.4692 50.2603C50.3792 49.8372 49.6692 49.568 49.1692 49.6911C47.6092 50.0834 46.3792 50.7295 45.3792 51.7526C44.5792 52.568 43.9492 53.8065 45.3392 54.468C45.6192 54.5988 45.9892 54.4295 46.0492 54.2065H46.0392Z" fill="#FFCA4D"/>
<path d="M44.0287 55.4221C44.4487 55.6221 45.1187 55.4529 45.0887 54.999C45.0887 54.9605 45.0687 54.9144 45.0687 54.8759C45.1187 54.7682 45.0987 54.6452 44.9787 54.5605C44.9787 54.5605 44.9787 54.5605 44.9687 54.5605C44.3087 53.0144 40.9887 51.5682 39.3287 52.8221C36.9587 54.6144 41.5587 56.0682 44.0287 55.4375V55.4221Z" fill="#FFCA4D"/>
<path d="M49.8193 58.8911C50.6593 58.3065 51.5393 57.4295 51.3793 56.5142C51.1593 55.2988 49.0593 55.5142 48.0493 55.8449C47.2293 56.1142 46.5893 56.7065 46.1693 57.2834C45.6793 57.9603 45.5793 58.5988 45.8593 59.3295C45.9793 59.6603 46.4293 59.7142 46.7293 59.568C47.6793 60.1911 49.0793 59.3988 49.8193 58.8911Z" fill="#FFCA4D"/>
<path d="M45.8389 59.8527C45.8489 59.7758 45.8389 59.6912 45.7789 59.6066C45.1189 58.6527 44.0989 57.5373 42.5589 57.422C41.2289 57.322 39.7189 58.2835 40.0489 59.3681C40.3389 60.3143 42.0389 60.6835 43.0789 60.9066C44.1389 61.1297 45.7489 61.3604 46.6789 60.7373C46.8389 60.6297 46.8189 60.422 46.6789 60.3066C46.4289 60.1143 46.1389 59.9758 45.8289 59.8604L45.8389 59.8527Z" fill="#FFCA4D"/>
<path d="M48.2792 65.2988C49.9892 66.0065 53.2992 63.2219 52.8392 61.9142C52.7292 61.5988 52.3092 61.3219 51.8792 61.3527C50.6192 61.4219 49.6592 61.6835 48.7092 62.3527C47.7892 62.9911 47.2592 63.9219 47.3992 64.8835C47.4492 65.2219 47.9492 65.4142 48.2892 65.3065L48.2792 65.2988Z" fill="#FFCA4D"/>
<path d="M47.3396 64.9219C46.9496 64.4681 46.3895 64.0911 45.7995 63.7988C44.8295 63.3142 43.2395 62.9911 42.1795 63.5142C41.2395 63.9835 41.2595 64.9142 41.8595 65.5604C42.5395 66.2911 43.5395 66.7219 44.6195 66.9988C45.3695 67.1911 46.1495 67.3219 46.9395 67.2219C47.3995 67.1604 47.8895 66.8758 47.9195 66.5219C48.0195 66.4219 48.0595 66.2912 47.9895 66.1296C47.7995 65.7142 47.6496 65.2835 47.3396 64.9142V64.9219Z" fill="#FFCA4D"/>
<path d="M53.879 68.7912C53.799 68.2835 53.429 68.0143 52.779 67.945C51.409 67.8066 49.869 68.4297 48.809 69.0374C48.049 69.4681 47.149 70.2989 47.489 71.0297C47.189 71.7143 47.969 72.3297 48.899 72.1989C50.919 71.9297 54.179 70.6989 53.869 68.7912H53.879Z" fill="#FFCA4D"/>
<path d="M45.3693 69.4526C44.1393 69.0449 41.9093 69.1911 41.6793 70.4911C41.4893 71.5449 42.7493 72.0603 43.8893 72.2911C44.4693 72.4142 45.3293 72.5219 45.9293 72.3988C46.1193 72.3603 46.3193 72.3065 46.4993 72.2372C46.8093 72.5372 47.4193 72.3834 47.5793 72.0449C48.1193 70.9295 46.5693 69.8449 45.3693 69.4526Z" fill="#FFCA4D"/>
<path d="M66.7716 35.4546C66.3716 35.1393 65.7416 35.17 65.3416 35.4546C63.5916 36.6854 65.2216 38.7162 66.5916 39.6546C66.8416 39.8239 67.2316 39.7854 67.4316 39.6239C67.6916 39.6008 67.9316 39.5008 68.0816 39.2931C68.9016 38.17 67.8316 36.2931 66.7816 35.4546H66.7716Z" fill="#FFBA1A"/>
<path d="M72.7119 37.7548C72.6119 37.4086 72.1419 37.2702 71.7319 37.324C70.4419 37.5086 69.3919 38.0394 68.6319 38.8779C68.4219 39.1086 68.6019 39.3855 68.8719 39.5086C68.8719 39.824 69.2119 40.1163 69.6719 40.1471C70.4519 40.2009 71.2519 39.7625 71.8319 39.4009C72.4619 39.0163 72.8819 38.3702 72.7019 37.7471L72.7119 37.7548Z" fill="#FFBA1A"/>
<path d="M66.6718 41.4393C66.2318 40.8393 65.3818 40.5085 64.5018 40.5085C63.9918 40.5085 63.4918 40.8547 63.5218 41.2624C63.5618 41.8778 63.7518 42.5085 64.2818 42.9778C64.5718 43.2393 65.0518 43.4701 65.5318 43.547C65.8918 43.7855 66.5118 43.7239 66.8018 43.3855C67.3018 42.8009 67.0918 42.0162 66.6718 41.4393Z" fill="#FFBA1A"/>
<path d="M71.4714 40.8393C70.0114 40.9239 67.8914 41.8701 68.2614 43.1931C68.3114 43.3624 68.4314 43.4701 68.5814 43.5393C68.6214 43.9316 68.9914 44.3239 69.6114 44.3239C70.4114 44.3239 71.1614 43.8624 71.6414 43.4085C72.1814 42.8854 72.4814 42.2777 72.4714 41.6085C72.4714 41.2162 72.0214 40.8085 71.4714 40.8393Z" fill="#FFBA1A"/>
<path d="M65.791 44.8009C65.411 44.6086 64.881 44.4932 64.431 44.6163C64.381 44.6317 64.341 44.6548 64.301 44.6778C64.071 44.6932 63.841 44.7624 63.671 44.9163C62.831 45.6548 63.071 46.7624 63.841 47.4778C64.291 47.8932 64.821 48.1624 65.551 48.1778C66.351 48.1932 66.881 47.6317 67.071 47.1086C67.381 46.2471 66.711 45.2855 65.791 44.8163V44.8009Z" fill="#FFBA1A"/>
<path d="M72.2017 46.3161C72.1717 45.9777 71.7317 45.6546 71.2917 45.6315C71.0717 45.6238 70.8717 45.6238 70.6817 45.67C69.7917 45.6853 69.0117 45.9853 68.4217 46.5161C67.9417 46.9469 67.6817 47.4623 67.3617 47.9546C67.3517 47.9777 67.3317 47.993 67.3217 48.0084C67.3017 48.0392 67.2817 48.0777 67.2617 48.1084C67.1917 48.2161 67.2017 48.3238 67.2617 48.4084C67.2917 48.7084 67.5117 48.993 67.9217 49.1084C69.1317 49.4238 70.2117 48.8238 71.0217 48.1777C71.3217 47.9392 71.6317 47.6853 71.8517 47.4007C72.1517 47.0315 72.2417 46.7546 72.2017 46.3161Z" fill="#FFBA1A"/>
<path d="M66.4015 50.5161C65.8815 49.5777 64.6314 49.2007 63.4114 49.5546C62.9114 49.7007 62.4714 50.0238 62.5014 50.47C62.5514 51.1469 62.9414 51.8315 63.5514 52.3238C63.8414 52.5623 64.1714 52.7546 64.5014 52.9546C64.6314 53.0315 64.7715 53.0777 64.9315 53.1084C65.4115 53.4007 66.1014 53.3392 66.6014 53.0315C67.6914 52.37 66.8115 51.2623 66.4015 50.5161Z" fill="#FFBA1A"/>
<path d="M71.1015 50.8085C70.8415 50.4854 70.1915 50.2854 69.7415 50.5316C69.1915 50.8469 68.6515 51.0854 68.2215 51.5162C67.8415 51.8931 67.6315 52.3008 67.6815 52.7546C67.4815 53.0085 67.4715 53.3469 67.6715 53.5931C68.5115 54.6623 70.1115 53.8777 70.7415 53.1239C71.2615 52.4931 71.6515 51.4854 71.1015 50.8008V50.8085Z" fill="#FFBA1A"/>
<path d="M67.081 56.7085C67.021 56.6931 66.961 56.6931 66.901 56.6855C66.641 56.4162 66.381 56.1547 66.071 55.9239C65.541 55.5239 64.931 55.2085 64.401 54.8162C63.601 54.2316 62.521 54.7701 62.641 55.547C62.761 56.3239 63.501 57.1855 64.191 57.7316C64.921 58.3162 66.291 58.7008 67.121 58.0931C67.381 58.0239 67.561 57.7855 67.551 57.547C67.661 57.2085 67.581 56.8239 67.091 56.7162L67.081 56.7085Z" fill="#FFBA1A"/>
<path d="M72.9818 55.147C72.9118 54.8316 72.4718 54.5547 72.0518 54.5624C70.9918 54.5932 69.9718 55.0855 69.1918 55.6009C68.8018 55.8624 68.3418 56.2547 68.3118 56.6701C68.3018 56.8701 68.3518 57.0701 68.4818 57.247C68.5718 57.3624 68.6918 57.4624 68.8418 57.524C68.9918 57.7624 69.3018 57.9393 69.7318 57.9778C70.5918 58.0624 71.4818 57.5701 72.0518 57.124C72.7418 56.5855 73.1418 55.9009 72.9718 55.1393L72.9818 55.147Z" fill="#FFBA1A"/>
<path d="M67.8115 60.6932C67.8115 60.4624 67.6915 60.2393 67.3915 60.1162C67.1115 60.0009 66.8215 59.9624 66.5415 59.9624C66.3915 59.847 66.2415 59.7316 66.1215 59.6547C65.5515 59.2778 64.8915 58.9624 64.1515 58.8624C63.5915 58.7855 63.0315 58.9701 62.8715 59.4239C62.5315 60.3855 63.2015 61.2701 64.4015 61.5932C65.3515 61.8547 67.0515 61.8932 67.6315 61.1162C67.7715 61.0009 67.8415 60.8393 67.8015 60.6932H67.8115Z" fill="#FFBA1A"/>
<path d="M72.8518 59.2008C72.7218 58.8085 72.2818 58.6623 71.8518 58.7008C71.8518 58.7008 71.8518 58.7008 71.8618 58.7008C71.8318 58.7008 71.8118 58.7085 71.7818 58.7085C71.7618 58.7085 71.7318 58.7085 71.7118 58.7162C71.0718 58.77 70.5418 59.0315 70.0818 59.3854C69.9718 59.47 69.8818 59.5546 69.7918 59.6469C69.5818 59.6469 69.3618 59.7008 69.2418 59.8162C69.2118 59.8392 69.1818 59.87 69.1618 59.8931C68.9518 59.9931 68.7818 60.1162 68.6418 60.3085C68.1718 60.9546 68.7518 61.87 69.7818 61.8392C70.7918 61.8085 71.6618 61.5315 72.2718 60.8931C72.7218 60.4315 73.0518 59.77 72.8618 59.1931L72.8518 59.2008Z" fill="#FFBA1A"/>
<path d="M73.6411 104.078C73.5311 100.747 73.2311 97.4162 72.8111 94.0932C71.9311 87.0624 69.9711 80.1393 69.1411 73.1009C68.3211 66.1393 67.6511 59.1701 67.9211 52.1778C68.1511 46.1008 68.1911 39.5624 70.4411 33.6932C70.5811 33.3393 69.9211 33.2239 69.7411 33.547C66.8511 38.8239 67.2011 44.7239 66.5711 50.3239C65.7911 57.2624 66.6011 64.3701 67.3311 71.2932C68.0811 78.3393 69.7311 85.2547 70.8511 92.2547C71.4311 95.8778 71.7111 99.5316 71.8811 103.178C72.0311 106.37 71.3211 110.085 72.5711 113.147C72.6711 113.393 73.1211 113.393 73.2211 113.147C74.3511 110.347 73.7611 106.97 73.6611 104.07L73.6411 104.078Z" fill="#C28400"/>
<path d="M72.3918 32.2701C72.2418 31.7239 71.4418 31.4393 70.7818 31.5701C68.5018 32.0162 67.3618 34.347 67.9818 35.9855C68.1118 36.3316 68.4518 36.5162 68.8318 36.5701C68.9518 36.6547 69.0918 36.7239 69.2718 36.7547C70.6118 36.9778 71.5018 36.0008 71.9618 35.1624C72.4718 34.247 72.6618 33.2547 72.3918 32.2778V32.2701Z" fill="#FFBA1A"/>
<path d="M105.486 129.227C105.486 129.227 105.486 116.552 101.612 110.592C97.7385 104.632 99.6755 85.9969 99.6755 85.9969C99.6755 85.9969 116.153 106.867 117.122 117.297C118.09 127.727 128.743 131.462 128.743 131.462C128.743 131.462 123.901 120.277 125.838 106.122C127.775 91.9568 152 85.9969 152 85.9969C152 85.9969 145.221 90.4668 137.46 105.377C129.712 120.287 151.032 133.697 151.032 133.697C151.032 133.697 144.252 125.502 143.284 112.082C142.316 98.6617 159.762 89.7218 159.762 89.7218C159.762 89.7218 157.825 100.907 157.825 110.592C157.825 120.277 170.415 129.972 170.415 129.972C170.415 129.972 173.32 117.297 171.383 106.122C169.446 94.9368 169.446 77.057 169.446 77.057C169.446 77.057 180.1 83.7619 181.068 93.457C182.037 103.142 196.577 129.237 196.577 129.237C196.577 129.237 195.609 119.552 191.735 110.602C187.861 101.662 192.703 85.2621 192.703 85.2621C192.703 85.2621 203.357 100.172 205.294 111.347C207.231 122.532 217.884 130.727 217.884 130.727C217.884 130.727 214.979 127.002 212.073 113.582C209.168 100.162 225.645 87.4971 225.645 87.4971C225.645 87.4971 225.645 91.222 222.74 102.407C219.834 113.592 231.456 128.492 231.456 128.492C231.456 128.492 229.519 117.307 231.456 108.367C233.393 99.4271 228.551 77.8122 228.551 77.8122C228.551 77.8122 240.173 83.7721 239.204 97.1921C238.236 110.612 250.826 131.482 250.826 131.482C250.826 131.482 246.952 123.287 247.92 106.142C248.889 88.9973 271.177 80.0574 271.177 80.0574C271.177 80.0574 267.304 87.5073 260.524 104.652C253.745 121.797 267.304 127.757 267.304 127.757C263.43 118.817 272.146 106.887 272.146 106.887C271.177 115.082 282.799 129.992 282.799 129.992C282.799 129.992 285.705 121.797 282.799 110.612C279.894 99.4373 270.196 91.9772 270.196 91.9772C270.196 91.9772 284.736 89.7422 291.516 100.917C298.295 112.102 298.295 131.472 298.295 131.472C298.295 131.472 297.327 124.767 298.295 113.582C299.264 102.397 314.773 89.977 314.773 89.977C308.312 110.847 317.36 119.787 317.36 119.787C322.521 103.887 345.778 88.9768 345.778 88.9768C345.778 88.9768 343.191 99.9068 334.156 112.827C325.108 125.747 326.408 138.667 326.408 138.667H-33.7237C-33.7237 138.667 -40.8348 127.237 -46.6457 111.337C-51.2626 98.7127 -35.6607 73.0769 -35.6607 73.0769C-35.6607 73.0769 -39.8663 100.407 -32.1052 109.347C-24.3573 118.287 -17.2462 127.237 -17.2462 127.237C-17.2462 127.237 -21.1201 108.357 -25.6442 98.4168C-30.1682 88.4768 -33.3921 86.9868 -33.3921 86.9868C-33.3921 86.9868 -19.8332 88.9768 -13.3722 100.897C-6.91121 112.827 -4.32415 129.717 -4.32415 129.717C-4.32415 129.717 -6.26113 103.377 -0.450205 94.9368C5.36072 86.4867 16.3458 80.0267 16.3458 80.0267C16.3458 80.0267 9.23468 97.4167 10.5348 109.837C11.8217 122.256 18.2827 129.717 18.2827 129.717C18.2827 129.717 29.2678 112.327 27.3308 106.367C25.3938 100.407 20.8698 88.9768 20.8698 88.9768C20.8698 88.9768 35.7288 96.4268 38.3158 106.367C40.9029 116.307 37.6658 127.737 37.6658 127.737C37.6658 127.737 47.3506 111.337 51.8747 101.397C56.3987 91.4567 71.2577 88.4768 71.2577 88.4768C71.2577 88.4768 57.0488 107.857 58.3357 115.307C59.6226 122.757 61.5728 129.217 61.5728 129.217C61.5728 129.217 73.1947 115.307 73.8447 106.857C74.4948 98.4066 75.7817 92.9467 75.7817 92.9467C75.7817 92.9467 88.0537 107.357 86.1167 116.307C84.1797 125.247 82.2427 129.727 82.2427 129.727C82.2427 129.727 93.8646 113.827 89.3538 95.4368C89.3538 95.4368 86.13 88.9768 88.7037 84.5069C88.7037 84.5069 95.8148 92.4569 97.7518 108.857C99.6888 125.257 105.5 129.227 105.5 129.227H105.486Z" fill="#7BAE38"/>
<path d="M300.896 75.0669C300.896 75.0669 284.75 99.4169 287.974 115.817C291.197 132.217 298.308 138.677 298.308 138.677H309.294C309.294 138.677 295.085 99.9169 300.896 75.0771V75.0669Z" fill="#89C13E"/>
<path d="M247.92 81.5269C247.92 81.5269 253.731 105.377 251.794 117.307C249.857 129.237 242.109 138.677 242.109 138.677H259.555C259.555 138.677 268.603 97.4268 247.934 81.5269H247.92Z" fill="#89C13E"/>
<path d="M193.658 83.0066C193.658 83.0066 177.512 118.286 181.386 128.727C185.26 139.167 191.071 138.667 191.071 138.667H204.643C204.643 138.667 185.91 126.747 193.658 83.0168V83.0066Z" fill="#89C13E"/>
<path d="M110.979 91.4568C110.979 91.4568 119.377 105.867 118.727 117.297C118.077 128.727 115.504 138.667 115.504 138.667H132.3C132.3 138.667 134.887 110.337 110.979 91.4568Z" fill="#89C13E"/>
<path d="M77.386 82.0168C77.386 82.0168 63.8272 103.877 70.925 118.787C78.0361 133.697 85.1339 138.667 85.1339 138.667H96.119C96.119 138.667 76.0859 110.347 77.386 82.0168Z" fill="#89C13E"/>
<path d="M31.5235 81.527C31.5235 81.527 41.8585 111.337 36.6976 122.767C31.5235 134.197 30.8867 138.667 30.8867 138.667H48.3328C48.3328 138.667 54.1437 102.387 31.5368 81.5168L31.5235 81.527Z" fill="#89C13E"/>
<path d="M-4.65576 76.5569C-4.65576 76.5569 -18.2279 107.367 -11.7668 122.767C-5.30584 138.177 3.09215 138.667 3.09215 138.667H15.3641C15.3641 138.667 -14.3539 116.807 -4.65576 76.5569Z" fill="#89C13E"/>
<path d="M58.0039 85.4968C58.0039 85.4968 49.6059 106.367 54.78 118.787C59.9541 131.207 68.9889 138.667 68.9889 138.667H77.3869C77.3869 138.667 56.717 109.847 58.0039 85.4968Z" fill="#89C13E"/>
<path d="M152.969 85.4968C152.969 85.4968 159.43 105.367 157.493 117.797C155.556 130.217 153.619 138.167 153.619 138.167L167.191 138.667C167.191 138.667 173.002 101.897 152.982 85.4968H152.969Z" fill="#89C13E"/>
<path d="M212.391 84.5068C212.391 84.5068 200.12 108.857 203.993 120.777C207.867 132.707 214.978 138.667 214.978 138.667H226.6C226.6 138.667 211.741 115.307 212.391 84.5068Z" fill="#89C13E"/>
<path d="M269.89 84.9968C269.89 84.9968 278.288 115.307 273.764 124.747C269.24 134.187 267.953 138.657 267.953 138.657H286.036C286.036 138.657 292.497 104.867 269.89 84.9866V84.9968Z" fill="#89C13E"/>
<path d="M324.152 89.9667C324.152 89.9667 307.356 103.877 307.356 115.307C307.356 126.737 310.58 138.656 310.58 138.656H322.202C322.202 138.656 315.741 116.297 324.139 89.9565L324.152 89.9667Z" fill="#89C13E"/>
<path d="M17.3139 96.1816C17.3139 96.1816 23.1249 111.582 21.1879 120.532C19.2509 129.471 15.377 138.667 15.377 138.667H30.886C30.886 138.667 32.823 110.592 17.3139 96.1816Z" fill="#89C13E"/>
<path d="M481.486 129.227C481.486 129.227 481.486 116.552 477.612 110.592C473.739 104.632 475.676 85.9969 475.676 85.9969C475.676 85.9969 492.153 106.867 493.122 117.297C494.09 127.727 504.743 131.462 504.743 131.462C504.743 131.462 499.901 120.277 501.838 106.122C503.775 91.9568 528 85.9969 528 85.9969C528 85.9969 521.221 90.4668 513.46 105.377C505.712 120.287 527.032 133.697 527.032 133.697C527.032 133.697 520.252 125.502 519.284 112.082C518.316 98.6617 535.762 89.7218 535.762 89.7218C535.762 89.7218 533.825 100.907 533.825 110.592C533.825 120.277 546.415 129.972 546.415 129.972C546.415 129.972 549.32 117.297 547.383 106.122C545.446 94.9368 545.446 77.057 545.446 77.057C545.446 77.057 556.1 83.7619 557.068 93.457C558.037 103.142 572.577 129.237 572.577 129.237C572.577 129.237 571.609 119.552 567.735 110.602C563.861 101.662 568.703 85.2621 568.703 85.2621C568.703 85.2621 579.357 100.172 581.294 111.347C583.231 122.532 593.884 130.727 593.884 130.727C593.884 130.727 590.979 127.002 588.073 113.582C585.168 100.162 601.645 87.4971 601.645 87.4971C601.645 87.4971 601.645 91.222 598.74 102.407C595.834 113.592 607.456 128.492 607.456 128.492C607.456 128.492 605.519 117.307 607.456 108.367C609.393 99.4271 604.551 77.8122 604.551 77.8122C604.551 77.8122 616.173 83.7721 615.204 97.1921C614.236 110.612 626.826 131.482 626.826 131.482C626.826 131.482 622.952 123.287 623.92 106.142C624.889 88.9973 647.177 80.0574 647.177 80.0574C647.177 80.0574 643.304 87.5073 636.524 104.652C629.745 121.797 643.304 127.757 643.304 127.757C639.43 118.817 648.146 106.887 648.146 106.887C647.177 115.082 658.799 129.992 658.799 129.992C658.799 129.992 661.705 121.797 658.799 110.612C655.894 99.4373 646.196 91.9772 646.196 91.9772C646.196 91.9772 660.736 89.7422 667.516 100.917C674.295 112.102 674.295 131.472 674.295 131.472C674.295 131.472 673.327 124.767 674.295 113.582C675.264 102.397 690.773 89.977 690.773 89.977C684.312 110.847 693.36 119.787 693.36 119.787C698.521 103.887 721.778 88.9768 721.778 88.9768C721.778 88.9768 719.191 99.9068 710.156 112.827C701.108 125.747 702.408 138.667 702.408 138.667H342.276C342.276 138.667 335.165 127.237 329.354 111.337C324.737 98.7127 340.339 73.0769 340.339 73.0769C340.339 73.0769 336.134 100.407 343.895 109.347C351.643 118.287 358.754 127.237 358.754 127.237C358.754 127.237 354.88 108.357 350.356 98.4168C345.832 88.4768 342.608 86.9868 342.608 86.9868C342.608 86.9868 356.167 88.9768 362.628 100.897C369.089 112.827 371.676 129.717 371.676 129.717C371.676 129.717 369.739 103.377 375.55 94.9368C381.361 86.4867 392.346 80.0267 392.346 80.0267C392.346 80.0267 385.235 97.4167 386.535 109.837C387.822 122.256 394.283 129.717 394.283 129.717C394.283 129.717 405.268 112.327 403.331 106.367C401.394 100.407 396.87 88.9768 396.87 88.9768C396.87 88.9768 411.729 96.4268 414.316 106.367C416.903 116.307 413.666 127.737 413.666 127.737C413.666 127.737 423.351 111.337 427.875 101.397C432.399 91.4567 447.258 88.4768 447.258 88.4768C447.258 88.4768 433.049 107.857 434.336 115.307C435.623 122.757 437.573 129.217 437.573 129.217C437.573 129.217 449.195 115.307 449.845 106.857C450.495 98.4066 451.782 92.9467 451.782 92.9467C451.782 92.9467 464.054 107.357 462.117 116.307C460.18 125.247 458.243 129.727 458.243 129.727C458.243 129.727 469.865 113.827 465.354 95.4368C465.354 95.4368 462.13 88.9768 464.704 84.5069C464.704 84.5069 471.815 92.4569 473.752 108.857C475.689 125.257 481.5 129.227 481.5 129.227H481.486Z" fill="#7BAE38"/>
<path d="M676.896 75.0669C676.896 75.0669 660.75 99.4169 663.974 115.817C667.197 132.217 674.308 138.677 674.308 138.677H685.294C685.294 138.677 671.085 99.9169 676.896 75.0771V75.0669Z" fill="#60872C"/>
<path d="M623.92 81.5269C623.92 81.5269 629.731 105.377 627.794 117.307C625.857 129.237 618.109 138.677 618.109 138.677H635.555C635.555 138.677 644.603 97.4268 623.934 81.5269H623.92Z" fill="#60872C"/>
<path d="M569.658 83.0066C569.658 83.0066 553.512 118.286 557.386 128.727C561.26 139.167 567.071 138.667 567.071 138.667H580.643C580.643 138.667 561.91 126.747 569.658 83.0168V83.0066Z" fill="#60872C"/>
<path d="M486.979 91.4568C486.979 91.4568 495.377 105.867 494.727 117.297C494.077 128.727 491.504 138.667 491.504 138.667H508.3C508.3 138.667 510.887 110.337 486.979 91.4568Z" fill="#60872C"/>
<path d="M453.386 82.0168C453.386 82.0168 439.827 103.877 446.925 118.787C454.036 133.697 461.134 138.667 461.134 138.667H472.119C472.119 138.667 452.086 110.347 453.386 82.0168Z" fill="#60872C"/>
<path d="M407.524 81.527C407.524 81.527 417.858 111.337 412.698 122.767C407.524 134.197 406.887 138.667 406.887 138.667H424.333C424.333 138.667 430.144 102.387 407.537 81.5168L407.524 81.527Z" fill="#60872C"/>
<path d="M371.344 76.5569C371.344 76.5569 357.772 107.367 364.233 122.767C370.694 138.177 379.092 138.667 379.092 138.667H391.364C391.364 138.667 361.646 116.807 371.344 76.5569Z" fill="#60872C"/>
<path d="M434.004 85.4968C434.004 85.4968 425.606 106.367 430.78 118.787C435.954 131.207 444.989 138.667 444.989 138.667H453.387C453.387 138.667 432.717 109.847 434.004 85.4968Z" fill="#89C13E"/>
<path d="M528.969 85.4968C528.969 85.4968 535.43 105.367 533.493 117.797C531.556 130.217 529.619 138.167 529.619 138.167L543.191 138.667C543.191 138.667 549.002 101.897 528.982 85.4968H528.969Z" fill="#89C13E"/>
<path d="M588.391 84.5068C588.391 84.5068 576.12 108.857 579.993 120.777C583.867 132.707 590.978 138.667 590.978 138.667H602.6C602.6 138.667 587.741 115.307 588.391 84.5068Z" fill="#89C13E"/>
<path d="M645.89 84.9968C645.89 84.9968 654.288 115.307 649.764 124.747C645.24 134.187 643.953 138.657 643.953 138.657H662.036C662.036 138.657 668.497 104.867 645.89 84.9866V84.9968Z" fill="#89C13E"/>
<path d="M700.152 89.9667C700.152 89.9667 683.356 103.877 683.356 115.307C683.356 126.737 686.58 138.656 686.58 138.656H698.202C698.202 138.656 691.741 116.297 700.139 89.9565L700.152 89.9667Z" fill="#89C13E"/>
<path d="M393.314 96.1816C393.314 96.1816 399.125 111.582 397.188 120.532C395.251 129.471 391.377 138.667 391.377 138.667H406.886C406.886 138.667 408.823 110.592 393.314 96.1816Z" fill="#89C13E"/>
<path d="M343.576 81.5269C343.576 81.5269 331.304 104.887 335.178 117.307C339.052 129.727 340.989 138.177 340.989 138.177H357.135C357.135 138.177 338.402 102.397 343.576 81.5269Z" fill="#89C13E"/>
<path d="M874.486 133.073C874.486 133.073 874.486 120.398 870.612 114.438C866.739 108.478 868.676 89.8431 868.676 89.8431C868.676 89.8431 885.153 110.713 886.122 121.143C887.09 131.573 897.743 135.308 897.743 135.308C897.743 135.308 892.901 124.123 894.838 109.968C896.775 95.803 921 89.8431 921 89.8431C921 89.8431 914.221 94.313 906.46 109.223C898.712 124.133 920.032 137.543 920.032 137.543C920.032 137.543 913.252 129.348 912.284 115.928C911.316 102.508 928.762 93.568 928.762 93.568C928.762 93.568 926.825 104.753 926.825 114.438C926.825 124.123 939.415 133.818 939.415 133.818C939.415 133.818 942.32 121.143 940.383 109.968C938.446 98.783 938.446 80.9032 938.446 80.9032C938.446 80.9032 949.1 87.6081 950.068 97.3032C951.037 106.988 965.577 133.083 965.577 133.083C965.577 133.083 964.609 123.398 960.735 114.448C956.861 105.508 961.703 89.1083 961.703 89.1083C961.703 89.1083 972.357 104.018 974.294 115.193C976.231 126.378 986.884 134.573 986.884 134.573C986.884 134.573 983.979 130.848 981.073 117.428C978.168 104.008 994.645 91.3433 994.645 91.3433C994.645 91.3433 994.645 95.0682 991.74 106.253C988.834 117.438 1000.46 132.338 1000.46 132.338C1000.46 132.338 998.519 121.153 1000.46 112.213C1002.39 103.273 997.551 81.6584 997.551 81.6584C997.551 81.6584 1009.17 87.6183 1008.2 101.038C1007.24 114.458 1019.83 135.328 1019.83 135.328C1019.83 135.328 1015.95 127.133 1016.92 109.988C1017.89 92.8434 1040.18 83.9036 1040.18 83.9036C1040.18 83.9036 1036.3 91.3535 1029.52 108.498C1022.74 125.643 1036.3 131.603 1036.3 131.603C1032.43 122.663 1041.15 110.733 1041.15 110.733C1040.18 118.928 1051.8 133.838 1051.8 133.838C1051.8 133.838 1054.7 125.643 1051.8 114.458C1048.89 103.284 1039.2 95.8234 1039.2 95.8234C1039.2 95.8234 1053.74 93.5884 1060.52 104.763C1067.3 115.948 1067.3 135.318 1067.3 135.318C1067.3 135.318 1066.33 128.613 1067.3 117.428C1068.26 106.243 1083.77 93.8232 1083.77 93.8232C1077.31 114.693 1086.36 123.633 1086.36 123.633C1091.52 107.733 1114.78 92.823 1114.78 92.823C1114.78 92.823 1112.19 103.753 1103.16 116.673C1094.11 129.593 1095.41 142.513 1095.41 142.513H735.276C735.276 142.513 728.165 131.083 722.354 115.183C717.737 102.559 733.339 76.9231 733.339 76.9231C733.339 76.9231 729.134 104.253 736.895 113.193C744.643 122.133 751.754 131.083 751.754 131.083C751.754 131.083 747.88 112.203 743.356 102.263C738.832 92.323 735.608 90.833 735.608 90.833C735.608 90.833 749.167 92.823 755.628 104.743C762.089 116.673 764.676 133.563 764.676 133.563C764.676 133.563 762.739 107.223 768.55 98.783C774.361 90.3329 785.346 83.8729 785.346 83.8729C785.346 83.8729 778.235 101.263 779.535 113.683C780.822 126.103 787.283 133.563 787.283 133.563C787.283 133.563 798.268 116.173 796.331 110.213C794.394 104.253 789.87 92.823 789.87 92.823C789.87 92.823 804.729 100.273 807.316 110.213C809.903 120.153 806.666 131.583 806.666 131.583C806.666 131.583 816.351 115.183 820.875 105.243C825.399 95.3029 840.258 92.323 840.258 92.323C840.258 92.323 826.049 111.703 827.336 119.153C828.623 126.603 830.573 133.063 830.573 133.063C830.573 133.063 842.195 119.153 842.845 110.703C843.495 102.253 844.782 96.7929 844.782 96.7929C844.782 96.7929 857.054 111.203 855.117 120.153C853.18 129.093 851.243 133.573 851.243 133.573C851.243 133.573 862.865 117.673 858.354 99.283C858.354 99.283 855.13 92.823 857.704 88.3531C857.704 88.3531 864.815 96.3031 866.752 112.703C868.689 129.103 874.5 133.073 874.5 133.073H874.486Z" fill="#7BAE38"/>
<path d="M1069.9 78.9131C1069.9 78.9131 1053.75 103.263 1056.97 119.663C1060.2 136.063 1067.31 142.523 1067.31 142.523H1078.29C1078.29 142.523 1064.08 103.763 1069.9 78.9233V78.9131Z" fill="#60872C"/>
<path d="M1016.92 85.373C1016.92 85.373 1022.73 109.223 1020.79 121.153C1018.86 133.083 1011.11 142.523 1011.11 142.523H1028.56C1028.56 142.523 1037.6 101.273 1016.93 85.373H1016.92Z" fill="#60872C"/>
<path d="M962.658 86.8528C962.658 86.8528 946.512 122.133 950.386 132.573C954.26 143.013 960.071 142.513 960.071 142.513H973.643C973.643 142.513 954.91 130.593 962.658 86.863V86.8528Z" fill="#60872C"/>
<path d="M879.979 95.303C879.979 95.303 888.377 109.713 887.727 121.143C887.077 132.573 884.504 142.513 884.504 142.513H901.3C901.3 142.513 903.887 114.183 879.979 95.303Z" fill="#60872C"/>
<path d="M846.386 85.863C846.386 85.863 832.827 107.723 839.925 122.633C847.036 137.543 854.134 142.513 854.134 142.513H865.119C865.119 142.513 845.086 114.193 846.386 85.863Z" fill="#60872C"/>
<path d="M800.524 85.3732C800.524 85.3732 810.858 115.183 805.698 126.613C800.524 138.043 799.887 142.513 799.887 142.513H817.333C817.333 142.513 823.144 106.233 800.537 85.363L800.524 85.3732Z" fill="#60872C"/>
<path d="M764.344 80.4031C764.344 80.4031 750.772 111.213 757.233 126.613C763.694 142.023 772.092 142.513 772.092 142.513H784.364C784.364 142.513 754.646 120.653 764.344 80.4031Z" fill="#60872C"/>
<path d="M827.004 89.343C827.004 89.343 818.606 110.213 823.78 122.633C828.954 135.053 837.989 142.513 837.989 142.513H846.387C846.387 142.513 825.717 113.693 827.004 89.343Z" fill="#89C13E"/>
<path d="M921.969 89.343C921.969 89.343 928.43 109.213 926.493 121.643C924.556 134.063 922.619 142.013 922.619 142.013L936.191 142.513C936.191 142.513 942.002 105.743 921.982 89.343H921.969Z" fill="#89C13E"/>
<path d="M981.391 88.353C981.391 88.353 969.12 112.703 972.993 124.623C976.867 136.553 983.978 142.513 983.978 142.513H995.6C995.6 142.513 980.741 119.153 981.391 88.353Z" fill="#89C13E"/>
<path d="M1038.89 88.843C1038.89 88.843 1047.29 119.153 1042.76 128.593C1038.24 138.033 1036.95 142.503 1036.95 142.503H1055.04C1055.04 142.503 1061.5 108.713 1038.89 88.8328V88.843Z" fill="#89C13E"/>
<path d="M1093.15 93.8129C1093.15 93.8129 1076.36 107.723 1076.36 119.153C1076.36 130.583 1079.58 142.503 1079.58 142.503H1091.2C1091.2 142.503 1084.74 120.143 1093.14 93.8027L1093.15 93.8129Z" fill="#89C13E"/>
<path d="M786.314 100.028C786.314 100.028 792.125 115.428 790.188 124.378C788.251 133.318 784.377 142.513 784.377 142.513H799.886C799.886 142.513 801.823 114.438 786.314 100.028Z" fill="#89C13E"/>
<path d="M736.576 85.373C736.576 85.373 724.304 108.733 728.178 121.153C732.052 133.573 733.989 142.023 733.989 142.023H750.135C750.135 142.023 731.402 106.243 736.576 85.373Z" fill="#89C13E"/>
<path d="M1189.49 129.227C1189.49 129.227 1189.49 116.552 1185.61 110.592C1181.74 104.632 1183.68 85.9969 1183.68 85.9969C1183.68 85.9969 1200.15 106.867 1201.12 117.297C1202.09 127.727 1212.74 131.462 1212.74 131.462C1212.74 131.462 1207.9 120.277 1209.84 106.122C1211.77 91.9568 1236 85.9969 1236 85.9969C1236 85.9969 1229.22 90.4668 1221.46 105.377C1213.71 120.287 1235.03 133.697 1235.03 133.697C1235.03 133.697 1228.25 125.502 1227.28 112.082C1226.32 98.6617 1243.76 89.7218 1243.76 89.7218C1243.76 89.7218 1241.82 100.907 1241.82 110.592C1241.82 120.277 1254.41 129.972 1254.41 129.972C1254.41 129.972 1257.32 117.297 1255.38 106.122C1253.45 94.9368 1253.45 77.057 1253.45 77.057C1253.45 77.057 1264.1 83.7619 1265.07 93.457C1266.04 103.142 1280.58 129.237 1280.58 129.237C1280.58 129.237 1279.61 119.552 1275.73 110.602C1271.86 101.662 1276.7 85.2621 1276.7 85.2621C1276.7 85.2621 1287.36 100.172 1289.29 111.347C1291.23 122.532 1301.88 130.727 1301.88 130.727C1301.88 130.727 1298.98 127.002 1296.07 113.582C1293.17 100.162 1309.65 87.4971 1309.65 87.4971C1309.65 87.4971 1309.65 91.222 1306.74 102.407C1303.83 113.592 1315.46 128.492 1315.46 128.492C1315.46 128.492 1313.52 117.307 1315.46 108.367C1317.39 99.4271 1312.55 77.8122 1312.55 77.8122C1312.55 77.8122 1324.17 83.7721 1323.2 97.1921C1322.24 110.612 1334.83 131.482 1334.83 131.482C1334.83 131.482 1330.95 123.287 1331.92 106.142C1332.89 88.9973 1355.18 80.0574 1355.18 80.0574C1355.18 80.0574 1351.3 87.5073 1344.52 104.652C1337.74 121.797 1351.3 127.757 1351.3 127.757C1347.43 118.817 1356.15 106.887 1356.15 106.887C1355.18 115.082 1366.8 129.992 1366.8 129.992C1366.8 129.992 1369.7 121.797 1366.8 110.612C1363.89 99.4373 1354.2 91.9772 1354.2 91.9772C1354.2 91.9772 1368.74 89.7422 1375.52 100.917C1382.3 112.102 1382.3 131.472 1382.3 131.472C1382.3 131.472 1381.33 124.767 1382.3 113.582C1383.26 102.397 1398.77 89.977 1398.77 89.977C1392.31 110.847 1401.36 119.787 1401.36 119.787C1406.52 103.887 1429.78 88.9768 1429.78 88.9768C1429.78 88.9768 1427.19 99.9068 1418.16 112.827C1409.11 125.747 1410.41 138.667 1410.41 138.667H1050.28C1050.28 138.667 1043.17 127.237 1037.35 111.337C1032.74 98.7127 1048.34 73.0769 1048.34 73.0769C1048.34 73.0769 1044.13 100.407 1051.89 109.347C1059.64 118.287 1066.75 127.237 1066.75 127.237C1066.75 127.237 1062.88 108.357 1058.36 98.4168C1053.83 88.4768 1050.61 86.9868 1050.61 86.9868C1050.61 86.9868 1064.17 88.9768 1070.63 100.897C1077.09 112.827 1079.68 129.717 1079.68 129.717C1079.68 129.717 1077.74 103.377 1083.55 94.9368C1089.36 86.4867 1100.35 80.0267 1100.35 80.0267C1100.35 80.0267 1093.23 97.4167 1094.53 109.837C1095.82 122.256 1102.28 129.717 1102.28 129.717C1102.28 129.717 1113.27 112.327 1111.33 106.367C1109.39 100.407 1104.87 88.9768 1104.87 88.9768C1104.87 88.9768 1119.73 96.4268 1122.32 106.367C1124.9 116.307 1121.67 127.737 1121.67 127.737C1121.67 127.737 1131.35 111.337 1135.87 101.397C1140.4 91.4567 1155.26 88.4768 1155.26 88.4768C1155.26 88.4768 1141.05 107.857 1142.34 115.307C1143.62 122.757 1145.57 129.217 1145.57 129.217C1145.57 129.217 1157.19 115.307 1157.84 106.857C1158.49 98.4066 1159.78 92.9467 1159.78 92.9467C1159.78 92.9467 1172.05 107.357 1170.12 116.307C1168.18 125.247 1166.24 129.727 1166.24 129.727C1166.24 129.727 1177.86 113.827 1173.35 95.4368C1173.35 95.4368 1170.13 88.9768 1172.7 84.5069C1172.7 84.5069 1179.81 92.4569 1181.75 108.857C1183.69 125.257 1189.5 129.227 1189.5 129.227H1189.49Z" fill="#7BAE38"/>
<path d="M1384.9 75.0669C1384.9 75.0669 1368.75 99.4169 1371.97 115.817C1375.2 132.217 1382.31 138.677 1382.31 138.677H1393.29C1393.29 138.677 1379.08 99.9169 1384.9 75.0771V75.0669Z" fill="#60872C"/>
<path d="M1331.92 81.5269C1331.92 81.5269 1337.73 105.377 1335.79 117.307C1333.86 129.237 1326.11 138.677 1326.11 138.677H1343.56C1343.56 138.677 1352.6 97.4268 1331.93 81.5269H1331.92Z" fill="#60872C"/>
<path d="M1277.66 83.0066C1277.66 83.0066 1261.51 118.286 1265.39 128.727C1269.26 139.167 1275.07 138.667 1275.07 138.667H1288.64C1288.64 138.667 1269.91 126.747 1277.66 83.0168V83.0066Z" fill="#60872C"/>
<path d="M1194.98 91.4568C1194.98 91.4568 1203.38 105.867 1202.73 117.297C1202.08 128.727 1199.5 138.667 1199.5 138.667H1216.3C1216.3 138.667 1218.89 110.337 1194.98 91.4568Z" fill="#60872C"/>
<path d="M1161.39 82.0168C1161.39 82.0168 1147.83 103.877 1154.93 118.787C1162.04 133.697 1169.13 138.667 1169.13 138.667H1180.12C1180.12 138.667 1160.09 110.347 1161.39 82.0168Z" fill="#60872C"/>
<path d="M1115.52 81.527C1115.52 81.527 1125.86 111.337 1120.7 122.767C1115.52 134.197 1114.89 138.667 1114.89 138.667H1132.33C1132.33 138.667 1138.14 102.387 1115.54 81.5168L1115.52 81.527Z" fill="#60872C"/>
<path d="M1079.34 76.5569C1079.34 76.5569 1065.77 107.367 1072.23 122.767C1078.69 138.177 1087.09 138.667 1087.09 138.667H1099.36C1099.36 138.667 1069.65 116.807 1079.34 76.5569Z" fill="#60872C"/>
<path d="M1142 85.4968C1142 85.4968 1133.61 106.367 1138.78 118.787C1143.95 131.207 1152.99 138.667 1152.99 138.667H1161.39C1161.39 138.667 1140.72 109.847 1142 85.4968Z" fill="#89C13E"/>
<path d="M1236.97 85.4968C1236.97 85.4968 1243.43 105.367 1241.49 117.797C1239.56 130.217 1237.62 138.167 1237.62 138.167L1251.19 138.667C1251.19 138.667 1257 101.897 1236.98 85.4968H1236.97Z" fill="#89C13E"/>
<path d="M1296.39 84.5068C1296.39 84.5068 1284.12 108.857 1287.99 120.777C1291.87 132.707 1298.98 138.667 1298.98 138.667H1310.6C1310.6 138.667 1295.74 115.307 1296.39 84.5068Z" fill="#89C13E"/>
<path d="M1353.89 84.9968C1353.89 84.9968 1362.29 115.307 1357.76 124.747C1353.24 134.187 1351.95 138.657 1351.95 138.657H1370.04C1370.04 138.657 1376.5 104.867 1353.89 84.9866V84.9968Z" fill="#89C13E"/>
<path d="M1408.15 89.9667C1408.15 89.9667 1391.36 103.877 1391.36 115.307C1391.36 126.737 1394.58 138.656 1394.58 138.656H1406.2C1406.2 138.656 1399.74 116.297 1408.14 89.9565L1408.15 89.9667Z" fill="#89C13E"/>
<path d="M1101.31 96.1816C1101.31 96.1816 1107.12 111.582 1105.19 120.532C1103.25 129.471 1099.38 138.667 1099.38 138.667H1114.89C1114.89 138.667 1116.82 110.592 1101.31 96.1816Z" fill="#89C13E"/>
<path d="M1051.58 81.5269C1051.58 81.5269 1039.3 104.887 1043.18 117.307C1047.05 129.727 1048.99 138.177 1048.99 138.177H1065.13C1065.13 138.177 1046.4 102.397 1051.58 81.5269Z" fill="#89C13E"/>
<path fill-rule="evenodd" clip-rule="evenodd" d="M825.36 157.046C830.632 157.168 837.559 156.666 843.885 155.27C845.312 157.506 847.707 159.475 850.433 161.679C859.078 168.689 878.083 171.026 890.156 170.747C898.814 170.545 908.197 169.593 916.592 167.122C919.407 167.555 922.297 167.785 924.75 167.891C936.222 168.382 951.949 167.218 960.444 160.458C960.869 160.121 961.257 159.775 961.633 159.429C964.235 161.804 968.126 163.737 970.966 164.9C982.626 169.69 999.754 168.007 1010.95 163.208C1013.6 162.073 1016.57 160.39 1019.17 158.371C1024.65 162.669 1033.52 165.785 1041.28 166.862C1052.18 168.362 1061.31 166.968 1070.17 161.39C1073.02 159.592 1075.95 157.38 1078.37 154.909C1080.36 159.034 1087.73 163.814 1092.45 165.102C1102.91 167.959 1120 162.727 1129.82 155.37C1130.92 155.697 1132.06 155.986 1133.29 156.217C1135.74 165.583 1155.61 169.718 1166.75 166.324L1167.37 166.135C1172.84 164.475 1180.42 162.173 1186.81 159.015C1193.67 163.016 1202.5 165.602 1209.2 166.141C1221.47 167.122 1235.7 165.708 1247.55 162.506C1255.85 167.487 1266.31 170.18 1276.84 170.478C1288.7 170.805 1301.73 169.507 1312.06 164.612C1315.02 166.468 1318.52 167.632 1322.81 167.507C1326.55 167.401 1329.88 166.218 1332.5 164.4C1340.89 169.853 1354.9 172.575 1363.91 167.141C1378.38 171.613 1396.84 169.93 1405.81 159.005C1406.08 158.669 1406.34 158.332 1406.59 157.996C1409.43 157.371 1412.3 156.178 1415.11 154.582C1419.48 158.063 1424.9 160.688 1430.93 160.39C1432.41 162.842 1434.39 165.016 1436.63 166.458C1442.46 170.218 1449.92 171.892 1457.15 169.391C1461.56 167.862 1464.92 164.929 1466.61 161.515C1472.89 163.15 1479.55 163.237 1484.79 160.919C1496.59 155.688 1488.16 144.08 1477.1 139.618C1479.94 130.05 1471.57 116.548 1460.81 119.712C1459.73 119.375 1458.57 119.106 1457.29 118.99C1450.7 118.375 1441.78 122.481 1435.38 126.838C1432.91 125.184 1430.4 123.808 1427.81 123.289C1424.85 117.452 1419.53 114.346 1408.85 115.336C1399.69 116.192 1391.26 121.366 1388.2 127.972C1387.78 128.415 1387.38 128.886 1387 129.357C1386.58 129.271 1386.16 129.184 1385.75 129.088C1384.04 128.703 1382.92 129.415 1382.56 130.377C1381.37 125.241 1376.94 120.933 1368.65 119.971C1357.76 118.721 1349.16 124.607 1347 132.079C1345.83 132.194 1344.69 132.338 1343.55 132.502C1343.85 131.165 1343.89 129.751 1343.63 128.299C1342.81 123.914 1337.14 119.587 1331.45 118.923C1324.61 118.125 1318.5 121.029 1314.01 125.155C1311.56 123.962 1309.02 122.914 1306.38 122.048C1293.59 117.856 1275.7 115.461 1268.08 123.779C1264.04 122.722 1259.75 122.529 1255.63 123.145C1249.29 112.874 1232.99 105.989 1217.62 110.864C1211.07 112.951 1204.95 116.048 1202.39 120.923C1198.51 116.057 1192.97 111.595 1189.55 109.97C1173.96 102.565 1160.21 106.268 1155.39 117.307C1144.48 115.528 1130.42 117 1125.58 122.597C1118.52 112.23 1104.14 108.287 1086.83 111.912C1082.43 112.836 1079.05 114.663 1076.77 116.904C1074.96 114.653 1072.53 112.538 1069.77 110.643C1064.64 107.114 1054.68 106.729 1048.21 106.508C1036.81 106.123 1015.74 108.999 1020.19 119.51C1019.61 119.769 1019.03 120.029 1018.45 120.279C1018.57 117.346 1018.12 114.509 1017.4 113.192C1012.78 104.777 1002.32 97.8337 989.795 98.5068C977.86 99.1512 964.623 103.777 958.28 111.989C957.742 112.682 957.304 113.393 956.903 114.095C947.17 107.873 932.044 105.296 918.869 106.412C908.31 107.306 897.725 110.691 893.622 118.346C882.223 113.569 865.092 113.949 856.165 119.314C851.637 111.947 833.704 110.47 822.59 115.131C819.31 109.008 810.85 106.3 802.41 105.585C791.88 104.693 779.79 106.754 772.01 111.731C771.69 111.169 771.34 110.6 770.91 110.046C765.84 103.477 755.26 99.7772 745.72 99.2618C735.71 98.7233 727.35 104.277 723.66 111.008C723.08 112.062 722.72 114.331 722.82 116.677C722.35 116.477 721.89 116.269 721.43 116.062C724.98 107.654 708.14 105.354 699.03 105.662C693.86 105.839 685.9 106.146 681.8 108.969C679.59 110.485 677.65 112.177 676.2 113.977C674.38 112.185 671.68 110.723 668.16 109.985C654.33 107.085 642.83 110.239 637.19 118.531C633.32 114.054 622.08 112.877 613.36 114.3C609.51 105.469 598.52 102.508 586.06 108.431C583.33 109.731 578.9 113.3 575.8 117.193C573.75 113.293 568.86 110.816 563.62 109.146C551.34 105.246 538.31 110.754 533.24 118.969C529.95 118.477 526.52 118.631 523.29 119.477C517.2 112.823 502.9 114.739 492.68 118.093C490.57 118.785 488.54 119.623 486.58 120.577C482.99 117.277 478.11 114.954 472.64 115.593C468.09 116.123 463.56 119.585 462.91 123.093C462.7 124.254 462.73 125.385 462.97 126.454C462.897 126.444 462.824 126.433 462.751 126.423C461.838 125.197 460.537 124.149 458.952 123.281C456.17 118.741 450.174 115.596 442.91 116.431C438.077 116.992 434.886 118.975 433.143 121.6C431.897 121.947 430.701 122.356 429.574 122.829C427.655 119.245 423.961 116.832 419.536 115.302C416.914 113.934 413.9 113.015 410.78 112.723C407.692 112.437 405.165 112.579 403.085 113.097C395.623 113.276 387.969 114.831 381.996 117.751C380.083 116.934 378.139 116.289 376.281 115.926C370.796 110.491 361.325 107.425 352.704 106.959C342.694 106.421 334.334 111.975 330.644 118.705C330.064 119.759 329.704 122.029 329.804 124.375C329.334 124.175 328.874 123.967 328.414 123.759C331.964 115.352 315.124 113.052 306.014 113.359C300.844 113.536 292.884 113.844 288.784 116.667C286.574 118.182 284.634 119.875 283.184 121.675C281.364 119.882 278.664 118.421 275.144 117.682C261.314 114.782 249.814 117.936 244.174 126.229C240.304 121.752 229.064 120.575 220.344 121.998C216.494 113.167 205.504 110.205 193.044 116.129C190.314 117.429 185.884 120.998 182.784 124.89C180.734 120.99 175.844 118.513 170.604 116.844C158.324 112.944 145.294 118.452 140.224 126.667C136.934 126.175 133.504 126.329 130.274 127.175C124.184 120.521 109.884 122.436 99.6641 125.79C97.5541 126.482 95.5241 127.321 93.5641 128.275C89.9741 124.975 85.0941 122.652 79.6241 123.29C75.0741 123.821 70.5441 127.282 69.8941 130.79C69.6841 131.952 69.7141 133.082 69.9541 134.152C69.0441 134.021 68.1341 133.905 67.1941 133.813C65.4741 127.836 58.5941 123.129 49.8941 124.129C43.2641 124.898 39.7241 128.344 38.7741 132.452C38.4841 131.682 37.5941 131.113 36.2241 131.421C35.8941 131.498 35.5641 131.567 35.2241 131.636C34.9241 131.259 34.6041 130.882 34.2641 130.529C31.8241 125.244 25.0841 121.105 17.7641 120.421C9.22409 119.629 4.97409 122.113 2.60409 126.782C0.534095 127.198 -1.4659 128.298 -3.4459 129.621C-8.5559 126.136 -15.6859 122.852 -20.9559 123.344C-21.9759 123.436 -22.9059 123.652 -23.7659 123.921C-32.3659 121.39 -39.0559 132.19 -36.7859 139.844C-45.6259 143.413 -52.3659 152.698 -42.9359 156.882C-38.7459 158.736 -33.4259 158.667 -28.4059 157.359C-27.0559 160.09 -24.3659 162.436 -20.8459 163.659C-15.0659 165.659 -9.1059 164.321 -4.4459 161.313C-2.6559 160.159 -1.0659 158.421 0.114097 156.459C4.9341 156.698 9.2641 154.598 12.7541 151.813C15.0041 153.09 17.2941 154.044 19.5641 154.544C19.7641 154.813 19.9741 155.082 20.1941 155.352C27.3641 164.09 42.1141 165.436 53.6841 161.859C60.8841 166.205 72.0841 164.029 78.7841 159.667C80.8841 161.121 83.5441 162.067 86.5341 162.152C89.9641 162.252 92.7541 161.321 95.1241 159.836C103.384 163.752 113.794 164.79 123.274 164.529C131.694 164.29 140.054 162.136 146.684 158.152C156.154 160.713 167.534 161.844 177.334 161.059C182.694 160.629 189.754 158.559 195.234 155.359C200.338 157.886 206.398 159.727 210.769 161.055C210.937 161.106 211.102 161.156 211.264 161.205C220.174 163.921 236.054 160.613 238.014 153.121C238.994 152.936 239.904 152.705 240.784 152.444C248.634 158.329 262.294 162.513 270.654 160.229C274.424 159.198 280.314 155.375 281.904 152.075C283.844 154.052 286.184 155.821 288.464 157.259C295.544 161.721 302.844 162.836 311.554 161.636C317.754 160.775 324.844 158.282 329.224 154.844C331.304 156.459 333.674 157.805 335.794 158.713C344.744 162.552 358.434 163.898 367.754 160.067C369.68 159.277 372.21 158.045 374.203 156.529C375.013 156.703 375.823 156.815 376.629 156.87C383.516 161.962 395.73 162.843 404.694 162.459C406.654 162.375 408.964 162.19 411.214 161.844C417.924 163.821 425.424 164.582 432.344 164.744C441.994 164.967 457.184 163.098 464.094 157.49C465.601 156.271 466.982 155.141 468.067 153.969C469.412 153.378 470.67 152.705 471.8 151.969C473.9 153.423 476.56 154.369 479.55 154.454C482.98 154.554 485.77 153.623 488.14 152.139C496.4 156.054 506.81 157.093 516.29 156.831C524.71 156.593 533.07 154.439 539.7 150.454C549.17 153.016 560.55 154.146 570.35 153.362C575.71 152.931 582.77 150.862 588.25 147.662C593.354 150.188 599.414 152.029 603.784 153.357L603.785 153.358L604.28 153.508C613.19 156.223 629.07 152.916 631.03 145.423C632.01 145.239 632.92 145.008 633.8 144.746C641.65 150.631 655.31 154.816 663.67 152.531C667.44 151.5 673.33 147.677 674.92 144.377C676.86 146.354 679.2 148.123 681.48 149.562C688.56 154.023 695.86 155.139 704.57 153.939C710.77 153.077 717.86 150.585 722.24 147.146C724.32 148.762 726.69 150.108 728.81 151.016C737.76 154.854 751.45 156.2 760.77 152.369C763.04 151.439 766.15 149.893 768.23 147.993C768.53 148.269 768.84 148.546 769.18 148.816C775.97 154.223 788.54 155.154 797.71 154.762C799.67 154.677 801.98 154.493 804.23 154.146C810.94 156.123 818.44 156.885 825.36 157.046Z" fill="#60872C"/>
</g>
<defs>
<clipPath id="clip0_89_10887">
<rect width="1443" height="140" fill="white"/>
</clipPath>
</defs>
</svg>
