<svg width="1440" height="140" viewBox="0 0 1440 140" fill="none" xmlns="http://www.w3.org/2000/svg">
<g clip-path="url(#clip0_111_15775)">
<rect width="1440" height="140" fill="#E5F7FF"/>
<path fill-rule="evenodd" clip-rule="evenodd" d="M0.286941 145.774H1451V163C1452.81 157.103 1453.2 150.995 1451.99 144.812C1445.55 111.88 1395.97 88.4731 1338.46 89.8098C1313.27 58.847 1254.95 42.751 1170.96 41.9838C1158.46 43.028 1146.44 44.8132 1135.02 47.2438C1103.47 30.3686 1058.05 21.644 1009.78 25.6753C982.811 27.9275 958.236 33.8869 937.604 42.4606C902.322 20.836 848.173 9.2585 790.354 14.087C755.218 17.0213 723.724 25.5967 698.625 37.8717C673.635 25.7681 642.385 17.3165 607.555 14.4079C557.074 10.1921 509.39 18.4826 474.618 35.0473C461.68 31.8344 447.797 29.5326 433.213 28.3147C384.164 24.2186 338.062 33.292 306.459 50.7037C294.731 48.156 282.346 46.2913 269.453 45.2145C198.878 45.8593 146.423 57.3284 116.527 79.3479C57.8289 77.6973 7.15372 101.116 0.684949 134.205C-0.0768272 138.102 -0.193657 141.97 0.286941 145.774Z" fill="white"/>
</g>
<defs>
<clipPath id="clip0_111_15775">
<rect width="1440" height="140" fill="white"/>
</clipPath>
</defs>
</svg>
