<svg width="1440" height="140" viewBox="0 0 1440 140" fill="none" xmlns="http://www.w3.org/2000/svg">
<g clip-path="url(#clip0_111_15821)">
<rect width="1440" height="140" fill="white"/>
<path fill-rule="evenodd" clip-rule="evenodd" d="M-0.489604 191.536H809.428C812.296 182.586 813.719 173.235 813.522 163.608C812.16 97.3379 734.484 43.0582 640.028 42.3705C591.46 42.0169 547.912 55.9013 517.248 78.4843C504.794 71.2265 490.719 65.1689 475.269 60.6773C423.301 45.5691 368.706 51.938 330.005 73.9673C319.471 68.7361 308.027 64.2602 295.779 60.6994C228.571 49.8459 174.239 54.775 136.87 75.8635C135.847 75.5423 134.815 75.2304 133.775 74.9281C73.8988 57.5208 9.16117 78.3238 -10.8201 121.393C-21.7967 145.053 -16.9835 170.51 -0.489604 191.536Z" fill="#EAEDFB"/>
<path fill-rule="evenodd" clip-rule="evenodd" d="M1474.03 191.172H664.112C661.244 182.222 659.821 172.871 660.018 163.244C661.38 96.974 739.056 42.6943 833.512 42.0066C882.08 41.653 925.628 55.5374 956.292 78.1204C968.746 70.8627 982.821 64.805 998.271 60.3134C1050.24 45.2052 1104.83 51.5741 1143.53 73.6034C1154.07 68.3722 1165.51 63.8963 1177.76 60.3355C1244.97 49.4821 1299.3 54.4112 1336.67 75.4996C1337.69 75.1784 1338.72 74.8666 1339.76 74.5642C1399.64 57.1569 1464.38 77.9599 1484.36 121.029C1495.34 144.689 1490.52 170.146 1474.03 191.172Z" fill="#EAEDFB"/>
</g>
<defs>
<clipPath id="clip0_111_15821">
<rect width="1440" height="140" fill="white"/>
</clipPath>
</defs>
</svg>
