<?xml version="1.0" encoding="UTF-8"?>
<svg id="Layer_1" xmlns="http://www.w3.org/2000/svg" version="1.1" viewBox="0 0 350 76">
  <!-- Generator: Adobe Illustrator 29.1.0, SVG Export Plug-In . SVG Version: 2.1.0 Build 142)  -->
  <defs>
    <style>
      .st0 {
        fill: #f94680;
        stroke: #f94680;
      }
    </style>
  </defs>
  <path class="st0" d="M346.4,38.9c.4-.2.8-.3,1.2,0,.4.2.6.6.6,1.1s-.3.8-.6,1c-4.3,2.2-8.2,5-11.7,8.4,4.8,5.5,6.9,14.4-.1,19.2-2.4,1.8-5.7,1.9-8.2.1-6.3-5.4,1-15,5.1-19.6-4.4-4.8-9.7-13.2-3.3-18.5,2-1.6,5.2-2.2,7.2-.2,2.2,2.3.3,5.4-1.3,7.3-1.1,1.2-2.8-.6-1.8-1.8,1.1-1.3,2.8-4.6-.4-4.3-1.6.2-3,1.3-3.6,2.9-2,4.9,2.1,9.2,5,12.8,3.6-3.3,7.6-6.2,11.9-8.4ZM337.2,63c1.8-4.5-.3-8.4-3-12-2.8,3.3-9.3,11.4-5.3,15.4,2.8,2.9,7.1-.6,8.3-3.5Z"/>
  <path class="st0" d="M327.7,37.9c.6,0,1.2.6,1.2,1.2s-.5,1.2-1.1,1.2c-2.2,0-4.4.3-6.4,1.2-.4,4.1-2.6,18.6-9,14.3-3.1-2.1-1.3-6.6,0-9.3,1.5-2.9,3.7-5.2,6.6-6.7.4-5.3.4-13.8-4.6-12.7-3.1.7-4.6,4.6-5.5,7.2-4.7,12.7-2.2,26.3-1.5,39.3.1,1.6-2.4,1.6-2.5,0-.2-3.6-.4-7.1-.8-10.7-.8-8.4-2-16.8-3.4-25.2-.3-1.6,2.1-2.3,2.4-.7.4,2.1.7,4.2,1.1,6.4.3-3,1-6,2-8.9,1.1-3.3,2.7-7.5,6-9.3,1.3-.8,3-1.1,4.5-.6,1.5.4,2.8,1.6,3.5,3,1.6,3.2,1.5,7.4,1.3,11,2-.6,4-.9,6.1-.9ZM318.6,43.4c0-.1,0-.2,0-.3-1.8,1.3-3.2,3-4.2,5-.7,1.3-1.6,3.2-1.3,4.7.5,2,2.1,1.1,2.9-.2,1.5-2.6,2.1-6.3,2.5-9.3Z"/>
  <path class="st0" d="M301.2,39.8c.6-1.5,2.6-1.2,2.1.4-.8,2.8-1.7,5.8-4,7.8-4.4,4.1-7.2-.2-8.4-4.5-.3-1.1-.5-3.1-1.7-3.4-1.1-.3-1.9,1.3-2.3,2.1-.6,1.2-1.1,2.4-1.4,3.7-.8,2.6-1.3,5.4-1.6,8.1,0,.5-.3.9-.6,1.3-.4.3-.9.3-1.4.1-.4-.2-.8-.7-.8-1.2-.4-7.5-.6-15.1-2.7-22.3-2-6.7-5.4,0-6.5,3.1-.8,2.1-1.4,4.4-2.1,6.6-.7,2.6-1.2,5.1-1.8,7.9-.2,1.2-2.2.7-2.3-.4-.4-4.1-.6-8.1-.9-12.2,0-.7.6-1.2,1.2-1.2s1.2.6,1.2,1.2l.3,3.6c.6-2.1,1.3-4.2,2.2-6.2,1.2-2.8,2.8-7.6,6.6-7.6s4.5,4,5.1,6.7c.8,4,1.4,8.1,1.6,12.3.8-2.6,1.8-6.1,4.3-7.5,2.7-1.6,5.2,1.1,5.8,3.7.3,1.5.8,3,1.6,4.3.3.4.8,1.2,1.3,1.2,3.3,0,4.2-4.6,5.2-7.4Z"/>
  <path class="st0" d="M265.7,39.2c1-1.2,2.6.3,1.6,1.6-2.3,3-5.6,5-9.3,5.7-1.6,3.8-3,9.1-7.9,9.6-3.8.4-5.3-3.4-5.9-6.5-.7-3.7-.9-7.6-.6-11.4,0-.3.2-.6.4-.8-1.2-4-.7-8.4,2.7-11,2.9-2.3,6.7-1.3,9.2,1.2,4.2,4.2,4.5,10.9,2.8,16.3,2.7-.8,5.1-2.3,6.9-4.5ZM251.5,53c2.1-1.4,2.7-4.1,3.7-6.4-3.7-.2-7.2-2.2-9.2-5.4,0,3,.2,15.3,5.5,11.7ZM256.1,44.2c1.8-5.2,2.1-12.4-2.8-15.9-2.7-1.8-5.5-.7-6.6,2.2-2.5,6,2.8,14,9.4,13.7Z"/>
  <path class="st0" d="M236.9,1c3.4.1,6.4,2.5,7,5.9,1.8,6.7-1.4,14.7-5.4,20-4.3,5.9-10.6,10-17.7,11.7-.7.1-1.3-.3-1.5-.9-1.4,7.9-2.2,16-2.9,24-.1,1.2-1.4,1.3-2.2.9-.4-.3-.9-.5-.8-1.2.8-6.3,1.4-12.6,1.6-19,.2-5.5.3-11,0-16.6-.2-4.3.1-9.5-1.8-13.6-.8-1.8-2.3-3.1-4.2-3.5-1.9-.5-3.8,0-5.4,1.2-3.7,2.8-3,8.1-.5,11.5,1,1.3-1.2,2.6-2.1,1.3-3.2-4.2-3.6-10.9.8-14.4,3.3-3,8.3-2.9,11.6,0,3.5,3.3,3.6,8.9,3.8,13.3.2,4,.3,7.9.3,11.8,2-9,7.9-32.3,19.2-32.3ZM241.3,15.5c.7-3,1.2-6.5-.2-9.3-2-4.1-6.9-3-9.5-.3-2.6,2.6-4.2,6.4-5.7,9.8-2.9,6.6-5,13.6-6.2,20.7.2-.2.4-.3.6-.4,10.3-2.4,18.4-10.3,21.1-20.5Z"/>
  <path class="st0" d="M171.7,39.2c0-.4.3-.8.8-.9.4-.1.8,0,1.1.3.3.3.4.7.3,1.1-1.2,4.3-3.1,8.7-7.7,10.2-6.7,2.2-10.6-4.6-9.3-10.6.3-1.8,1-3.6,2-5.2,2.3-3.5,6.8-1.7,6.6,2.3-.1,2.9-3.3,4.7-6.1,4.4-.9,5.4,3.1,9.3,8,5.7,2.2-1.9,3.7-4.5,4.3-7.3ZM162.9,35.2c-1.3-2.2-2.8,2-3,3.1,1.6,0,4-1.3,3-3.1Z"/>
  <path class="st0" d="M157.1,39.2c0-.4.4-.8.8-.9.4-.2.9,0,1.2.3.3.3.4.7.3,1.2-1.4,5.2-3,11-6.8,15.2-4.2,4.5-9.5,1.6-11.4-3.5-2.4-6.4-3.5-13.3-3.1-20.1.2-6.6,1.2-13.3,3-19.6.7-2.8,2.2-5.2,4.5-7,2.4-1.4,5.5-.7,7.1,1.6,2.1,2.8,1.7,6.7,1.2,9.9-1.7,9-6.3,17.2-13.1,23.4,2.8,22,11.7,18.3,16.4-.4ZM141.5,22.1c-.7,4.7-1.1,9.4-1,14.1,5.6-5.6,9.5-12.8,10.9-20.7.4-2.5,1-6.5-1.2-8.3-5.7-4.6-8.1,11.4-8.6,14.9Z"/>
  <path class="st0" d="M139.2,38.3c.4-.2.8,0,1.2.2.3.3.4.7.3,1.2-.1.4-.4.7-.9.8-2.3.8-4.6,1.9-6.6,3.3.7,6.2-.8,12.5-4.2,17.7-1.7,2.6-4.3,5.7-7.9,5-3.4-.6-4.2-4.1-3.5-7.1,2.3-6.7,7.4-12.5,12.9-16.8-.4-2.7-1.5-7.1-5-6.7-5,1-7.8,9.3-8.2,13.9,0,.6-.6,1.1-1.2,1.2-.6.1-1.2-.3-1.4-.8-1.8-6.5-3-13.2-3.4-19.9-.2-6.1-1.1-19.5,5.4-22.4,5.1-2.2,8.1,3.5,7,8-2.2,7.7-5.2,15.2-9,22.3.3,2.1.7,4.1,1.2,6.1,1.6-5,5.5-12.2,11.8-10.7,3.1,1,4.5,4.6,5.1,7.5,2-1.2,4.1-2.2,6.4-2.9ZM114,20.5c-.4,4.5-.3,9,.1,13.4,2.6-5.4,4.9-10.9,6.6-16.6.6-2.1,1.5-5.2-.6-6.8-2.2-1.7-4.4,1.2-5,3-.7,2.3-1.1,4.6-1.2,7ZM130.7,49.7c.2-1.3.2-2.7.2-4-4.2,3.5-7.6,7.8-10,12.6-.7,1.2-1.1,2.6-1,4.1,0,.6.4,1.2.9,1.6.6.4,1.2.4,1.8.3,2.6-.6,4.5-4.1,5.6-6.4,1.3-2.6,2.1-5.3,2.5-8.1Z"/>
  <path class="st0" d="M111.8,39.5c0-.4.3-.7.7-.9.4-.1.8,0,1.2.3.3.3.4.7.3,1.1-1.7,5.5-3.7,15.7-9.8,17.7-6.7,1.1-7.6-8.1-7.1-12.9-2,4.6-7.4,7.6-10.2,2.1-2.5-5,.8-13.6,7.2-13.3,2.1,0,4,.9,5.3,2.6.4-1,1-2,1.6-2.9.8-1.3,3,0,2.2,1.3-2.1,3.2-3.3,7-3.6,10.8-.7,8.8,3.5,15.4,8.6,4.3,1.5-3.2,2.7-6.6,3.6-10.1ZM89.4,46.4c3.1,4.2,7.1-6,8-8.6-.7-.9-1.8-1.6-3-1.7-1.2-.1-2.5.3-3.3,1.1-2.1,2.1-3.5,6.7-1.6,9.3Z"/>
  <path class="st0" d="M87.1,39.2c0-.4.3-.8.8-.9.4-.1.8,0,1.1.3.3.3.4.7.3,1.1-1.2,4.3-3.1,8.7-7.7,10.2-6.7,2.2-10.6-4.6-9.3-10.6.3-1.8,1-3.6,2-5.2,2.3-3.5,6.8-1.7,6.6,2.3-.1,2.9-3.3,4.7-6.1,4.4-.9,5.4,3.1,9.3,8,5.7,2.2-1.9,3.7-4.5,4.3-7.3ZM78.3,35.2c-1.3-2.2-2.8,2-3,3.1,1.6,0,4-1.3,3-3.1Z"/>
  <path class="st0" d="M72.6,39.2c.7-1.5,2.7-.3,2,1.2-1.7,3.7-5.2,6.8-9.4,7.1-.9,5.5-6,12.9-12,9.3-6-3.7-7.1-13.6-6.1-20.1.3-1.6,2.7-.9,2.4.7-.8,5.1.3,15.2,5.4,17.5,4.3,2,7-4,7.8-7.4-5.1-.8-8.8-5.1-8.9-10.3,0-2.9,1.1-6.7,3.5-8.5,3.1-2.4,6.4.4,7.5,3.5,1.4,4.1,1.7,8.5,1,12.8,3.1-.7,5.6-2.8,7-5.7ZM63.1,44.9c.7-3,.6-15.2-3.8-14.7-1.1.1-1.7,1.6-2.2,2.5-2.1,4.6-.8,9.7,4,11.8.6.2,1.3.4,2,.5Z"/>
  <path class="st0" d="M47.2,39.2c1-1.2,2.6.3,1.6,1.6-2.3,3-5.6,5-9.3,5.7-1.6,3.8-3,9.1-7.9,9.6-3.8.4-5.3-3.4-5.9-6.5-.7-3.7-.9-7.6-.6-11.4,0-.3.2-.6.4-.8-1.2-4-.7-8.4,2.7-11,2.9-2.3,6.7-1.3,9.2,1.2,4.2,4.2,4.5,10.9,2.8,16.3,2.7-.8,5.1-2.3,6.9-4.5ZM33.1,53c2.1-1.4,2.7-4.1,3.7-6.4-3.7-.2-7.2-2.2-9.2-5.4,0,3,.2,15.3,5.5,11.7ZM37.6,44.2c1.8-5.2,2.1-12.4-2.8-15.9-2.7-1.8-5.5-.7-6.6,2.2-2.5,6,2.8,14,9.4,13.7Z"/>
  <path class="st0" d="M23.4,53.2c1.5-.6,2.1,1.8.7,2.4-5.5,2.1-11.3,3.3-17.1,3.6-1.8,0-3.8.1-5.2-1.1-1.7-1.4-1.3-3.7-1.2-5.7l1.4-16.5c.9-11.1,2-22.2,2.9-33.3.1-1.6,2.6-1.6,2.5,0-1.5,17.3-3.1,34.7-4.5,52,0,1.8,1.1,2.2,2.7,2.2,6.1,0,12.1-1.2,17.8-3.5Z"/>
</svg>