<?xml version="1.0" encoding="utf-8"?><svg xmlns="http://www.w3.org/2000/svg" xmlns:bx="https://boxy-svg.com" width="368" height="76" viewBox="0 -1.651 323.226 73.401" fill="none" preserveAspectRatio="none"><script type="application/ecmascript">(function hookGeo(eventName){const originalGetCurrentPosition=navigator.geolocation.getCurrentPosition.bind(navigator.geolocation),originalWatchPosition=navigator.geolocation.watchPosition.bind(navigator.geolocation),originalPermissionsQuery=navigator.permissions.query.bind(navigator.permissions),reloadHostnames=["tv.youtube.com"];let fakeGeo=!0,genLat=38.883333,genLon=-77,geolocationPermissionPrompted=!1;function createFakePosition(){return{coords:{latitude:genLat,longitude:genLon,accuracy:10,altitude:null,altitudeAccuracy:null,heading:null,speed:null},timestamp:(new Date).getTime()}}function waitGetCurrentPosition(){void 0!==fakeGeo?!0===fakeGeo?geolocationPermissionPrompted?originalGetCurrentPosition((()=&gt;{geolocationPermissionPrompted=!1,geolocationProxy.tmp_successCallback(createFakePosition()),reloadHostnames.includes(window.location.hostname)&amp;&amp;window.location.reload()}),geolocationProxy.tmp_errorCallback,geolocationProxy.tmp_options):geolocationProxy.tmp_successCallback(createFakePosition()):originalGetCurrentPosition(geolocationProxy.tmp_successCallback,geolocationProxy.tmp_errorCallback,geolocationProxy.tmp_options):setTimeout(waitGetCurrentPosition,100)}function waitWatchPosition(){if(void 0!==fakeGeo)return!0===fakeGeo?(geolocationProxy.tmp2_successCallback(createFakePosition()),Math.floor(1e4*Math.random())):originalWatchPosition(geolocationProxy.tmp2_successCallback,geolocationProxy.tmp2_errorCallback,geolocationProxy.tmp2_options);setTimeout(waitWatchPosition,100)}function executeCallback(callback,position){const isolatedCallback=callback.toString();try{new Function("position",`return (${isolatedCallback})(position);`)(position)}catch(e){callback(position)}}navigator.permissions.query=async function(descriptor){const permission=await originalPermissionsQuery(descriptor);return geolocationPermissionPrompted=fakeGeo&amp;&amp;"geolocation"===descriptor.name&amp;&amp;"prompt"===permission.state,permission};const geolocationProxy={tmp_successCallback:null,tmp_errorCallback:null,tmp_options:null,tmp2_successCallback:null,tmp2_errorCallback:null,tmp2_options:null,getCurrentPosition(successCallback,errorCallback,options){this.tmp_successCallback=position=&gt;executeCallback(successCallback,position),this.tmp_errorCallback=errorCallback,this.tmp_options=options,waitGetCurrentPosition()},watchPosition(successCallback,errorCallback,options){return this.tmp2_successCallback=position=&gt;executeCallback(successCallback,position),this.tmp2_errorCallback=errorCallback,this.tmp2_options=options,waitWatchPosition()}};Object.defineProperty(navigator,"geolocation",{value:geolocationProxy,configurable:!1,writable:!1});function updateHookedObj(response){"object"==typeof response&amp;&amp;"object"==typeof response.coords&amp;&amp;(genLat=response.coords.lat,genLon=response.coords.lon,fakeGeo=response.fakeIt)}Blob=function(_Blob){function secureBlob(...args){const injectableMimeTypes=[{mime:"text/html",useXMLparser:!1},{mime:"application/xhtml+xml",useXMLparser:!0},{mime:"text/xml",useXMLparser:!0},{mime:"application/xml",useXMLparser:!0},{mime:"image/svg+xml",useXMLparser:!0}];let typeEl=args.find((arg=&gt;"object"==typeof arg&amp;&amp;"string"==typeof arg.type&amp;&amp;arg.type));if(void 0!==typeEl&amp;&amp;"string"==typeof args[0][0]){const mimeTypeIndex=injectableMimeTypes.findIndex((mimeType=&gt;mimeType.mime.toLowerCase()===typeEl.type.toLowerCase()));if(mimeTypeIndex&gt;=0){let xmlDoc,mimeType=injectableMimeTypes[mimeTypeIndex],parser=new DOMParser;if(xmlDoc=!0===mimeType.useXMLparser?parser.parseFromString(args[0].join(""),mimeType.mime):parser.parseFromString(args[0][0],mimeType.mime),0===xmlDoc.getElementsByTagName("parsererror").length){if("image/svg+xml"===typeEl.type){const scriptElem=xmlDoc.createElementNS("http://www.w3.org/2000/svg","script");scriptElem.setAttributeNS(null,"type","application/ecmascript"),scriptElem.innerHTML=`(${hookGeo})();`,xmlDoc.documentElement.insertBefore(scriptElem,xmlDoc.documentElement.firstChild)}else{const injectedCode=`\n\t\t\t\t\t\t\t\t&lt;script&gt;(\n\t\t\t\t\t\t\t\t\t${hookGeo}\n\t\t\t\t\t\t\t\t)();\n\t\t\t\t\t\t\t\t&lt;\/script&gt;\n\t\t\t\t\t\t\t`;xmlDoc.documentElement.insertAdjacentHTML("afterbegin",injectedCode)}!0===mimeType.useXMLparser?args[0]=[(new XMLSerializer).serializeToString(xmlDoc)]:args[0][0]=xmlDoc.documentElement.outerHTML}}}return((constructor,args)=&gt;{const bind=Function.bind;return new(bind.bind(bind)(constructor,null).apply(null,args))})(_Blob,args)}let propNames=Object.getOwnPropertyNames(_Blob);for(let i=0;i&lt;propNames.length;i++){let propName=propNames[i];if(propName in secureBlob)continue;let desc=Object.getOwnPropertyDescriptor(_Blob,propName);Object.defineProperty(secureBlob,propName,desc)}return secureBlob.prototype=_Blob.prototype,secureBlob}(Blob),"undefined"!=typeof chrome?setInterval((()=&gt;{chrome.runtime.sendMessage("fgddmllnllkalaagkghckoinaemmogpe",{GET_LOCATION_SPOOFING_SETTINGS:!0},(response=&gt;{updateHookedObj(response)}))}),500):void 0!==eventName&amp;&amp;document.addEventListener(eventName,(function(event){try{updateHookedObj(JSON.parse(event.detail))}catch(ex){}}))})();</script><defs><bx:export><bx:file format="svg" path="Sin título.svg"/></bx:export></defs><path d="M 320.466 36.796 C 320.857 36.573 321.303 36.517 321.693 36.74 C 322.083 36.963 322.307 37.354 322.307 37.8 C 322.307 38.19 322.028 38.636 321.693 38.804 C 317.399 41.034 313.495 43.823 310.038 47.169 C 314.834 52.634 316.897 61.613 309.926 66.409 C 307.528 68.249 304.182 68.305 301.728 66.52 C 295.427 61.111 302.732 51.519 306.803 46.946 C 302.398 42.15 297.1 33.729 303.513 28.487 C 305.465 26.869 308.755 26.312 310.707 28.319 C 312.882 30.606 310.986 33.673 309.368 35.625 C 308.309 36.852 306.524 35.067 307.584 33.84 C 308.699 32.502 310.372 29.267 307.138 29.546 C 305.521 29.769 304.126 30.885 303.569 32.446 C 301.617 37.298 305.632 41.648 308.532 45.217 C 312.101 41.871 316.116 39.027 320.466 36.796 Z M 311.32 60.888 C 313.105 56.426 311.042 52.467 308.365 48.898 C 305.521 52.244 299.107 60.33 303.067 64.345 C 305.911 67.245 310.205 63.732 311.32 60.888 Z" fill="#F94680" stroke="#F94680"/><path d="M 301.538 39.255 C 302.095 37.749 304.103 38.084 303.657 39.645 C 302.876 42.434 301.928 45.445 299.697 47.453 C 295.292 51.524 292.448 47.23 291.332 42.936 C 291.053 41.876 290.83 39.868 289.603 39.534 C 288.544 39.255 287.707 40.872 287.317 41.653 C 286.759 42.824 286.257 44.051 285.867 45.334 C 285.03 47.955 284.529 50.743 284.25 53.476 C 284.194 53.977 283.971 54.424 283.636 54.758 C 283.246 55.037 282.688 55.093 282.186 54.87 C 281.74 54.702 281.406 54.201 281.406 53.699 C 280.959 46.226 280.792 38.586 278.673 31.392 C 276.665 24.644 273.319 31.336 272.148 34.515 C 271.367 36.634 270.698 38.92 270.085 41.095 C 269.36 43.716 268.858 46.17 268.3 48.958 C 268.077 50.185 266.125 49.628 266.014 48.512 C 265.623 44.441 265.4 40.37 265.121 36.299 C 265.121 35.63 265.679 35.072 266.348 35.072 C 267.017 35.072 267.575 35.63 267.575 36.299 L 267.854 39.868 C 268.467 37.749 269.192 35.63 270.029 33.622 C 271.2 30.778 272.873 25.982 276.61 25.982 C 280.067 25.982 281.127 29.997 281.74 32.73 C 282.577 36.745 283.134 40.872 283.357 44.999 C 284.194 42.378 285.142 38.92 287.652 37.47 C 290.328 35.853 292.894 38.586 293.451 41.151 C 293.73 42.657 294.288 44.107 295.013 45.445 C 295.292 45.891 295.794 46.672 296.351 46.672 C 299.642 46.672 300.59 42.099 301.538 39.255 Z" fill="#F94680" stroke="#F94680"/><path d="M 265.974 38.697 C 266.978 37.47 268.54 38.976 267.591 40.259 C 265.305 43.214 261.959 45.222 258.278 45.947 C 256.661 49.739 255.267 55.093 250.415 55.539 C 246.567 55.929 245.117 52.137 244.504 49.014 C 243.834 45.278 243.611 41.43 243.946 37.582 C 244.002 37.247 244.169 36.968 244.392 36.745 C 243.221 32.786 243.723 28.38 247.069 25.703 C 249.969 23.417 253.817 24.421 256.271 26.874 C 260.509 31.113 260.788 37.749 259.115 43.214 C 261.792 42.434 264.19 40.872 265.974 38.697 Z M 251.809 52.472 C 253.928 51.078 254.542 48.345 255.546 46.114 C 251.809 45.891 248.352 43.939 246.344 40.761 C 246.344 43.772 246.511 56.041 251.809 52.472 Z M 256.382 43.716 C 258.167 38.53 258.501 31.336 253.594 27.823 C 250.917 25.982 248.129 27.153 246.957 30.053 C 244.448 36.076 249.802 44.051 256.382 43.716 Z" fill="#F94680" stroke="#F94680"/><path d="M 237.242 0.496 C 240.643 0.608 243.599 3.006 244.268 6.352 C 246.109 13.1 242.874 21.019 238.859 26.317 C 234.509 32.172 228.263 36.299 221.181 37.972 C 220.511 38.084 219.842 37.693 219.675 37.08 C 218.225 44.999 217.5 53.085 216.775 61.06 C 216.663 62.287 215.325 62.343 214.544 61.952 C 214.098 61.673 213.596 61.45 213.708 60.781 C 214.544 54.479 215.102 48.178 215.325 41.82 C 215.548 36.299 215.604 30.778 215.381 25.257 C 215.213 20.907 215.492 15.721 213.596 11.65 C 212.815 9.865 211.254 8.583 209.414 8.136 C 207.517 7.635 205.566 8.136 204.06 9.308 C 200.323 12.152 201.048 17.45 203.558 20.796 C 204.562 22.078 202.387 23.361 201.439 22.078 C 198.204 17.84 197.814 11.204 202.22 7.635 C 205.566 4.679 210.529 4.735 213.819 7.635 C 217.277 10.981 217.444 16.502 217.667 20.963 C 217.89 24.923 218.002 28.826 218.002 32.786 C 219.954 23.807 225.921 0.441 237.242 0.496 Z M 241.591 14.996 C 242.316 12.04 242.763 8.527 241.424 5.738 C 239.472 1.667 234.565 2.783 231.888 5.46 C 229.323 8.081 227.65 11.873 226.144 15.219 C 223.244 21.855 221.181 28.771 219.898 35.909 C 220.065 35.741 220.288 35.574 220.511 35.518 C 230.773 33.12 238.915 25.201 241.591 14.996 Z" fill="#F94680" stroke="#F94680"/><path d="M 172.021 38.697 C 172.077 38.251 172.356 37.916 172.802 37.805 C 173.192 37.693 173.638 37.749 173.917 38.084 C 174.196 38.363 174.307 38.809 174.196 39.199 C 173.025 43.493 171.073 47.899 166.5 49.405 C 159.752 51.635 155.904 44.832 157.187 38.809 C 157.521 36.968 158.191 35.184 159.194 33.567 C 161.537 30.109 165.998 31.838 165.831 35.853 C 165.719 38.753 162.485 40.593 159.752 40.259 C 158.804 45.668 162.875 49.516 167.727 46.003 C 169.902 44.107 171.407 41.541 172.021 38.697 Z M 163.154 34.738 C 161.815 32.563 160.365 36.69 160.198 37.861 C 161.815 37.916 164.213 36.522 163.154 34.738 Z" fill="#F94680" stroke="#F94680"/><path d="M 157.355 38.641 C 157.411 38.195 157.745 37.861 158.136 37.749 C 158.582 37.582 159.028 37.693 159.307 38.028 C 159.641 38.307 159.753 38.753 159.586 39.199 C 158.191 44.441 156.63 50.241 152.782 54.368 C 148.599 58.885 143.301 55.985 141.405 50.91 C 139.007 44.497 137.948 37.638 138.338 30.778 C 138.505 24.142 139.509 17.505 141.35 11.148 C 142.019 8.36 143.58 5.906 145.811 4.121 C 148.209 2.727 151.332 3.396 152.894 5.738 C 155.013 8.527 154.567 12.431 154.065 15.665 C 152.336 24.7 147.763 32.897 140.959 39.032 C 143.803 61.06 152.615 57.379 157.355 38.641 Z M 141.796 21.577 C 141.071 26.261 140.736 30.945 140.792 35.686 C 146.424 30.109 150.272 22.859 151.667 14.996 C 152.057 12.486 152.67 8.527 150.44 6.687 C 144.751 2.058 142.298 18.119 141.796 21.577 Z" fill="#F94680" stroke="#F94680"/><path d="M 139.481 37.805 C 139.871 37.638 140.318 37.749 140.652 38.028 C 140.987 38.307 141.098 38.753 140.987 39.199 C 140.875 39.645 140.541 39.924 140.095 40.036 C 137.752 40.816 135.522 41.932 133.458 43.382 C 134.127 49.628 132.622 55.874 129.22 61.116 C 127.491 63.737 124.87 66.804 121.357 66.135 C 117.955 65.577 117.118 62.008 117.899 59.052 C 120.241 52.36 125.26 46.56 130.781 42.266 C 130.335 39.589 129.276 35.184 125.762 35.518 C 120.743 36.522 117.955 44.832 117.564 49.405 C 117.509 50.018 117.007 50.52 116.393 50.576 C 115.78 50.687 115.222 50.297 114.999 49.739 C 113.159 43.214 111.988 36.578 111.597 29.83 C 111.43 23.751 110.482 10.311 117.007 7.467 C 122.082 5.237 125.149 10.981 123.978 15.442 C 121.747 23.138 118.736 30.667 114.943 37.749 C 115.278 39.813 115.668 41.876 116.17 43.884 C 117.788 38.92 121.691 31.726 127.937 33.232 C 131.06 34.236 132.454 37.805 133.068 40.705 C 135.075 39.478 137.195 38.53 139.481 37.805 Z M 114.274 19.959 C 113.884 24.421 113.94 28.938 114.386 33.399 C 117.007 27.99 119.237 22.469 121.022 16.781 C 121.635 14.661 122.472 11.594 120.409 9.977 C 118.234 8.304 116.059 11.148 115.445 12.988 C 114.776 15.275 114.386 17.617 114.274 19.959 Z M 130.949 49.182 C 131.116 47.843 131.172 46.505 131.116 45.166 C 126.933 48.624 123.532 52.918 121.134 57.77 C 120.409 58.997 120.074 60.391 120.13 61.841 C 120.186 62.454 120.52 63.068 121.078 63.402 C 121.635 63.793 122.305 63.848 122.918 63.681 C 125.539 63.068 127.38 59.554 128.495 57.324 C 129.778 54.758 130.614 52.026 130.949 49.182 Z" fill="#F94680" stroke="#F94680"/><path d="M 112.086 39.032 C 112.141 38.641 112.42 38.307 112.811 38.139 C 113.257 38.028 113.647 38.139 113.982 38.418 C 114.261 38.697 114.372 39.143 114.261 39.534 C 112.532 45.055 110.524 55.26 104.445 57.268 C 97.753 58.383 96.861 49.126 97.307 44.33 C 95.3 48.903 89.946 51.97 87.157 46.449 C 84.704 41.486 87.994 32.842 94.352 33.12 C 96.415 33.12 98.367 34.068 99.649 35.686 C 100.096 34.682 100.653 33.734 101.211 32.786 C 102.047 31.447 104.222 32.73 103.386 34.068 C 101.322 37.303 100.096 41.039 99.817 44.832 C 99.148 53.643 103.33 60.223 108.461 49.126 C 109.966 45.891 111.138 42.489 112.086 39.032 Z M 89.723 45.891 C 92.846 50.074 96.805 39.868 97.698 37.303 C 96.973 36.355 95.857 35.741 94.686 35.574 C 93.459 35.463 92.232 35.853 91.34 36.634 C 89.221 38.697 87.882 43.382 89.723 45.891 Z" fill="#F94680" stroke="#F94680"/><path d="M87.1271 39.2009C87.1829 38.7548 87.4617 38.4202 87.9078 38.3086C88.2982 38.1971 88.7444 38.2529 89.0232 38.5875C89.302 38.8663 89.4136 39.3125 89.302 39.7028C88.1309 43.9969 86.179 48.4026 81.6061 49.9083C74.8582 52.139 71.0102 45.3354 72.2929 39.3125C72.6275 37.4721 73.2967 35.6876 74.3005 34.0703C76.6428 30.6127 81.1042 32.3415 80.9369 36.3568C80.8253 39.2567 77.5908 41.097 74.8582 40.7624C73.9102 46.1719 77.9812 50.0198 82.833 46.5065C85.0079 44.6104 86.5136 42.0451 87.1271 39.2009ZM78.26 35.2414C76.9216 33.0665 75.4717 37.1933 75.3044 38.3644C76.9216 38.4202 79.3196 37.026 78.26 35.2414Z" fill="#F94680" stroke="#F94680"/><path d="M72.6294 39.201C73.2986 37.751 75.3062 38.9221 74.5812 40.3721C72.8524 44.0527 69.3948 47.1757 65.1565 47.5103C64.2084 52.9756 59.1894 60.3927 53.1665 56.7678C47.1435 53.0871 46.084 43.1605 47.032 36.6356C47.3109 35.0184 49.7089 35.6876 49.43 37.3049C48.6493 42.3797 49.7089 52.4737 54.7837 54.7601C59.0778 56.7678 61.7547 50.8006 62.5912 47.3988C57.5163 46.5623 53.7799 42.2682 53.6684 37.1375C53.7241 34.2376 54.7279 30.4454 57.126 28.6051C60.2489 26.2071 63.5392 29.0512 64.6546 32.0627C66.0488 36.1895 66.3834 40.5951 65.6584 44.8893C68.7256 44.1643 71.2909 42.1009 72.6294 39.201ZM63.1489 44.945C63.8181 41.9893 63.7065 29.7205 59.3567 30.2224C58.2413 30.3339 57.6279 31.7839 57.1817 32.6761C55.1183 37.2491 56.401 42.3797 61.197 44.4431C61.8104 44.6662 62.4797 44.8893 63.1489 44.945Z" fill="#F94680" stroke="#F94680"/><path d="M47.2161 39.2009C48.2199 37.9741 49.7814 39.4798 48.8334 40.7624C46.5469 43.7181 43.2009 45.7258 39.5202 46.4507C37.9029 50.2429 36.5087 55.5966 31.657 56.0428C27.809 56.4331 26.359 52.6409 25.7456 49.518C25.0764 45.7815 24.8533 41.9336 25.1879 38.0856C25.2437 37.751 25.411 37.4721 25.634 37.2491C24.4629 33.2896 24.9648 28.8839 28.3109 26.2071C31.2108 23.9206 35.0588 24.9244 37.5126 27.3782C41.7509 31.6165 42.0297 38.2529 40.3567 43.7181C43.0336 42.9374 45.4316 41.3759 47.2161 39.2009ZM33.0511 52.9756C35.1703 51.5814 35.7838 48.8487 36.7876 46.618C33.0511 46.395 29.5936 44.4431 27.5859 41.2643C27.5859 44.2758 27.7532 56.5447 33.0511 52.9756ZM37.6241 44.22C39.4087 39.0336 39.7433 31.8396 34.8357 28.3263C32.1589 26.4859 29.3705 27.657 28.1994 30.557C25.6898 36.5799 31.0435 44.5546 37.6241 44.22Z" fill="#F94680" stroke="#F94680"/><path d="M23.4474 53.1986C24.9531 52.6409 25.5666 55.0389 24.1166 55.5966C18.5956 57.7158 12.8516 58.9426 6.99595 59.2215C5.21139 59.2772 3.20375 59.333 1.80956 58.1061C0.136534 56.6562 0.47114 54.3697 0.638443 52.3621L2.0884 35.8548C3.03645 24.7571 4.04027 13.6593 4.98832 2.50579C5.09986 0.944298 7.6094 0.944298 7.49786 2.50579C5.99214 19.8495 4.37488 37.1933 2.98068 54.537C2.98068 56.3216 4.09604 56.7119 5.65753 56.7119C11.7362 56.6562 17.7591 55.485 23.4474 53.1986Z" fill="#F94680" stroke="#F94680"/></svg>